<?xml version="1.0" encoding="utf-8"?>
<!-- Svg Vector Icons : http://www.onlinewebfonts.com/icon -->
<!DOCTYPE svg PUBLIC "-//W3C//DTD SVG 1.1//EN" "http://www.w3.org/Graphics/SVG/1.1/DTD/svg11.dtd">
<svg version="1.1" xmlns="http://www.w3.org/2000/svg" xmlns:xlink="http://www.w3.org/1999/xlink" x="0px" y="0px" viewBox="0 0 1000 1000" enable-background="new 0 0 1000 1000" xml:space="preserve">
<metadata> Svg Vector Icons : http://www.onlinewebfonts.com/icon </metadata>
<g><path d="M962,563L546.2,749.9c-39.8,17.3-55.7,17.3-92.4,0L38,563c-22.1-11.7-28-55.1-28-78.8c27.8,15.9,66.8,33.5,65.3,32.6L500,712.7l424.7-195.8c0.7-0.2,38.6-19.2,65.3-32.6C990,508.5,982.5,553.5,962,563z M962,367.2L546.2,554.2c-39.8,17.3-55.7,17.3-92.4,0L38,367.2C5.4,349.9,6.4,295.3,38,275L453.8,55.4c36.8-18.3,59.8-19.4,92.4,0L962,275C993.6,292.3,992.6,353,962,367.2z M500,92.7L75.3,321.1l424.7,179l424.7-179L500,92.7z M500,908.5l424.7-195.8c0.7-0.2,38.6-19.3,65.3-32.6c0,24.2-7.5,69.2-28,78.8L546.2,945.7c-39.8,17.3-55.7,17.3-92.4,0L38,758.8C16,747.1,10,703.7,10,680c27.8,15.9,66.8,33.5,65.3,32.6L500,908.5z"/></g>
</svg>