<?xml version="1.0" encoding="utf-8"?>
<!-- Generator: Adobe Illustrator 16.0.0, SVG Export Plug-In . SVG Version: 6.00 Build 0)  -->
<!DOCTYPE svg PUBLIC "-//W3C//DTD SVG 1.1//EN" "http://www.w3.org/Graphics/SVG/1.1/DTD/svg11.dtd">
<svg version="1.1" id="Layer_1" xmlns="http://www.w3.org/2000/svg" xmlns:xlink="http://www.w3.org/1999/xlink" x="0px" y="0px"
	 width="859.504px" height="859.504px" viewBox="0 0 859.504 859.504" enable-background="new 0 0 859.504 859.504"
	 xml:space="preserve">
<path fill="#DEDEDD" stroke="#454545" stroke-miterlimit="10" d="M429.752,0C192.407,0,0,192.406,0,429.752
	c0,237.346,192.407,429.752,429.752,429.752c237.346,0,429.752-192.406,429.752-429.752C859.504,192.406,667.098,0,429.752,0z
	 M429.753,740.129c-171.417,0-310.377-138.961-310.377-310.377s138.96-310.377,310.377-310.377
	c171.417,0,310.376,138.96,310.376,310.377S601.17,740.129,429.753,740.129z"/>
<polyline id="gearpoly0_3_" fill="#DEDEDD" stroke="#454545" stroke-miterlimit="10" points="120.246,449.659 125.067,450.172 
	125.125,450.176 125.231,450.18 125.387,450.186 125.59,450.186 125.843,450.18 126.143,450.165 126.491,450.137 126.885,450.1 
	127.329,450.045 127.818,449.971 128.353,449.879 128.933,449.762 129.555,449.622 130.224,449.452 130.933,449.252 
	131.682,449.024 132.474,448.758 133.303,448.458 134.17,448.12 135.073,447.739 136.009,447.319 136.979,446.852 137.98,446.34 
	139.012,445.782 140.07,445.172 141.154,444.512 142.262,443.797 143.393,443.03 144.543,442.206 145.711,441.325 146.895,440.383 
	147.5,439.395 147.374,436.297 146.691,435.364 145.435,434.522 144.199,433.737 142.986,433.008 141.797,432.334 140.634,431.711 
	139.499,431.141 138.396,430.62 137.323,430.146 136.284,429.718 135.278,429.333 134.309,428.988 133.379,428.684 132.487,428.417 
	131.637,428.185 130.827,427.985 130.061,427.816 129.338,427.676 128.659,427.562 128.026,427.471 127.438,427.401 
	126.898,427.353 126.404,427.319 125.959,427.301 125.562,427.293 125.214,427.297 124.913,427.307 124.661,427.321 
	124.458,427.337 124.303,427.354 124.199,427.368 124.141,427.378 119.375,428.28 "/>
<polyline id="gearpoly0_4_" fill="#DEDEDD" stroke="#454545" stroke-miterlimit="10" points="125.332,489.073 130.18,488.965 
	130.237,488.963 130.344,488.954 130.499,488.938 130.7,488.913 130.95,488.875 131.246,488.821 131.587,488.75 131.974,488.663 
	132.406,488.551 132.882,488.417 133.401,488.254 133.961,488.065 134.561,487.846 135.202,487.592 135.88,487.303 136.594,486.981 
	137.345,486.616 138.129,486.213 138.945,485.766 139.792,485.274 140.667,484.739 141.568,484.151 142.497,483.516 
	143.448,482.829 144.42,482.09 145.411,481.297 146.418,480.446 147.441,479.54 148.477,478.575 149.523,477.551 150.576,476.467 
	151.051,475.409 150.529,472.352 149.732,471.514 148.379,470.838 147.053,470.219 145.757,469.651 144.491,469.135 
	143.258,468.667 142.06,468.247 140.898,467.87 139.773,467.538 138.688,467.247 137.642,466.993 136.637,466.776 135.676,466.592 
	134.757,466.44 133.884,466.319 133.055,466.225 132.273,466.155 131.539,466.11 130.851,466.083 130.212,466.073 129.619,466.079 
	129.077,466.1 128.584,466.131 128.14,466.168 127.744,466.213 127.4,466.26 127.104,466.309 126.854,466.356 126.655,466.397 
	126.504,466.432 126.402,466.461 126.346,466.479 121.735,467.983 "/>
<polyline id="gearpoly0_5_" fill="#DEDEDD" stroke="#454545" stroke-miterlimit="10" points="135.417,527.514 140.211,526.788 
	140.268,526.778 140.372,526.754 140.524,526.721 140.721,526.668 140.964,526.6 141.25,526.508 141.579,526.395 141.951,526.256 
	142.366,526.092 142.821,525.897 143.315,525.67 143.847,525.411 144.413,525.118 145.017,524.784 145.652,524.411 146.318,523.999 
	147.017,523.542 147.743,523.042 148.496,522.493 149.272,521.897 150.072,521.254 150.891,520.555 151.73,519.807 152.586,519.004 
	153.455,518.147 154.337,517.235 155.227,516.26 156.126,515.231 157.029,514.141 157.937,512.993 158.842,511.784 159.177,510.674 
	158.27,507.709 157.372,506.979 155.943,506.483 154.549,506.038 153.19,505.639 151.869,505.29 150.586,504.983 149.344,504.719 
	148.145,504.495 146.986,504.309 145.873,504.159 144.802,504.042 143.777,503.954 142.801,503.895 141.87,503.862 140.989,503.854 
	140.154,503.866 139.371,503.897 138.637,503.946 137.95,504.006 137.315,504.079 136.729,504.161 136.193,504.25 135.708,504.344 
	135.272,504.44 134.886,504.534 134.551,504.624 134.263,504.709 134.021,504.788 133.83,504.856 133.684,504.911 133.587,504.952 
	133.533,504.975 129.152,507.057 "/>
<polyline id="gearpoly0_6_" fill="#DEDEDD" stroke="#454545" stroke-miterlimit="10" points="150.335,564.35 154.997,563.016 
	155.052,562.999 155.152,562.963 155.299,562.911 155.487,562.834 155.72,562.733 155.991,562.606 156.304,562.452 156.654,562.268 
	157.045,562.051 157.472,561.799 157.933,561.51 158.426,561.186 158.951,560.823 159.507,560.415 160.089,559.963 160.697,559.469 
	161.331,558.926 161.988,558.338 162.664,557.698 163.358,557.006 164.069,556.268 164.792,555.469 165.529,554.62 166.275,553.713 
	167.027,552.754 167.785,551.735 168.543,550.655 169.303,549.52 170.06,548.325 170.812,547.067 171.556,545.752 171.746,544.61 
	170.467,541.786 169.483,541.176 168.003,540.866 166.563,540.604 165.165,540.383 163.811,540.204 162.498,540.065 
	161.232,539.961 160.014,539.891 158.842,539.856 157.719,539.848 156.641,539.87 155.614,539.913 154.638,539.981 153.711,540.067 
	152.836,540.17 152.01,540.292 151.236,540.42 150.515,540.563 149.842,540.711 149.221,540.864 148.649,541.02 148.13,541.178 
	147.66,541.333 147.241,541.483 146.869,541.625 146.549,541.758 146.274,541.879 146.045,541.989 145.863,542.081 145.725,542.153 
	145.635,542.206 145.584,542.237 141.506,544.862 "/>
<polyline id="gearpoly0_7_" fill="#DEDEDD" stroke="#454545" stroke-miterlimit="10" points="169.841,598.975 174.294,597.057 
	174.346,597.032 174.441,596.985 174.58,596.913 174.757,596.813 174.975,596.684 175.228,596.522 175.518,596.329 175.842,596.104 
	176.202,595.838 176.593,595.534 177.014,595.188 177.461,594.803 177.936,594.375 178.434,593.899 178.953,593.377 
	179.494,592.809 180.053,592.19 180.63,591.524 181.218,590.801 181.818,590.028 182.429,589.204 183.043,588.321 183.666,587.381 
	184.29,586.389 184.913,585.34 185.535,584.233 186.148,583.063 186.756,581.842 187.354,580.559 187.94,579.217 188.51,577.819 
	188.552,576.659 186.922,574.022 185.868,573.543 184.36,573.426 182.899,573.348 181.484,573.309 180.118,573.305 178.799,573.334 
	177.53,573.393 176.312,573.479 175.146,573.594 174.031,573.731 172.964,573.889 171.952,574.065 170.992,574.256 170.084,574.459 
	169.229,574.676 168.425,574.901 167.675,575.127 166.977,575.362 166.329,575.594 165.732,575.827 165.186,576.051 164.69,576.276 
	164.244,576.489 163.848,576.692 163.498,576.879 163.197,577.053 162.94,577.209 162.727,577.346 162.559,577.461 162.43,577.551 
	162.348,577.616 162.301,577.651 158.592,580.776 "/>
<polyline id="gearpoly0_8_" fill="#DEDEDD" stroke="#454545" stroke-miterlimit="10" points="193.614,630.821 197.786,628.35 
	197.834,628.319 197.923,628.26 198.051,628.17 198.214,628.049 198.413,627.893 198.644,627.7 198.906,627.471 199.199,627.206 
	199.522,626.897 199.871,626.545 200.244,626.149 200.639,625.709 201.055,625.225 201.487,624.688 201.936,624.104 
	202.399,623.471 202.875,622.786 203.362,622.053 203.853,621.26 204.35,620.417 204.85,619.522 205.346,618.567 205.844,617.555 
	206.335,616.491 206.819,615.372 207.295,614.194 207.753,612.956 208.199,611.667 208.629,610.317 209.039,608.911 
	209.425,607.452 209.318,606.295 207.364,603.889 206.258,603.549 204.747,603.625 203.289,603.735 201.881,603.877 
	200.525,604.049 199.22,604.247 197.97,604.467 196.772,604.709 195.63,604.973 194.542,605.25 193.504,605.542 192.523,605.846 
	191.596,606.159 190.721,606.477 189.9,606.801 189.131,607.127 188.417,607.448 187.754,607.768 187.142,608.083 186.579,608.389 
	186.066,608.682 185.604,608.967 185.188,609.235 184.82,609.489 184.498,609.719 184.222,609.93 183.987,610.118 183.793,610.28 
	183.641,610.417 183.524,610.522 183.451,610.596 183.409,610.637 180.131,614.209 "/>
<polyline id="gearpoly0_9_" fill="#DEDEDD" stroke="#454545" stroke-miterlimit="10" points="221.266,659.368 225.087,656.381 
	225.13,656.346 225.211,656.276 225.326,656.17 225.473,656.03 225.65,655.85 225.854,655.627 226.085,655.368 226.342,655.067 
	226.623,654.721 226.924,654.325 227.243,653.885 227.578,653.399 227.929,652.866 228.289,652.278 228.659,651.641 
	229.038,650.954 229.422,650.213 229.812,649.424 230.197,648.575 230.582,647.674 230.963,646.723 231.333,645.713 
	231.697,644.645 232.049,643.528 232.386,642.354 232.707,641.125 233.003,639.84 233.28,638.504 233.534,637.11 233.762,635.665 
	233.957,634.167 233.704,633.036 231.458,630.897 230.317,630.702 228.828,630.971 227.396,631.266 226.019,631.586 224.695,631.93 
	223.426,632.293 222.215,632.672 221.059,633.065 219.959,633.473 218.915,633.887 217.923,634.309 216.989,634.735 
	216.109,635.165 215.282,635.592 214.51,636.018 213.788,636.44 213.121,636.85 212.505,637.252 211.938,637.643 211.419,638.018 
	210.948,638.375 210.525,638.715 210.147,639.036 209.815,639.334 209.525,639.604 209.278,639.848 209.069,640.065 
	208.897,640.249 208.764,640.405 208.662,640.524 208.6,640.608 208.562,640.653 205.768,644.616 "/>
<polyline id="gearpoly0_10_" fill="#DEDEDD" stroke="#454545" stroke-miterlimit="10" points="252.34,684.143 255.748,680.694 
	255.786,680.653 255.857,680.573 255.958,680.452 256.085,680.295 256.238,680.092 256.412,679.846 256.608,679.559 
	256.824,679.229 257.06,678.85 257.307,678.418 257.567,677.942 257.837,677.417 258.117,676.842 258.399,676.213 258.685,675.534 
	258.973,674.803 259.259,674.02 259.544,673.188 259.818,672.295 260.084,671.354 260.341,670.362 260.578,669.313 260.803,668.208 
	261.009,667.055 261.193,665.848 261.354,664.586 261.483,663.276 261.588,661.915 261.661,660.5 261.702,659.036 261.704,657.526 
	261.309,656.436 258.808,654.602 257.651,654.555 256.209,655.012 254.827,655.489 253.501,655.981 252.232,656.493 251.02,657.014 
	249.867,657.545 248.771,658.083 247.732,658.627 246.75,659.172 245.82,659.717 244.949,660.26 244.131,660.797 243.365,661.327 
	242.653,661.848 241.991,662.36 241.383,662.852 240.823,663.329 240.311,663.79 239.844,664.227 239.423,664.643 239.047,665.034 
	238.713,665.399 238.422,665.739 238.168,666.043 237.955,666.317 237.775,666.559 237.629,666.762 237.516,666.934 237.43,667.065 
	237.379,667.157 237.348,667.206 235.082,671.495 "/>
<polyline id="gearpoly0_11_" fill="#DEDEDD" stroke="#454545" stroke-miterlimit="10" points="286.327,704.741 289.267,700.883 
	289.299,700.838 289.359,700.75 289.443,700.618 289.549,700.446 289.676,700.225 289.816,699.958 289.975,699.649 290.146,699.293 
	290.331,698.887 290.521,698.428 290.719,697.922 290.919,697.368 291.123,696.762 291.322,696.102 291.519,695.391 
	291.711,694.629 291.895,693.815 292.071,692.954 292.229,692.034 292.372,691.067 292.5,690.049 292.602,688.979 292.683,687.854 
	292.74,686.684 292.769,685.463 292.768,684.194 292.728,682.875 292.656,681.512 292.549,680.1 292.402,678.643 292.211,677.145 
	291.679,676.114 288.965,674.616 287.812,674.717 286.439,675.354 285.13,676.004 283.878,676.663 282.685,677.333 281.548,678.002 
	280.474,678.678 279.454,679.35 278.495,680.024 277.59,680.69 276.737,681.35 275.943,681.999 275.2,682.637 274.508,683.26 
	273.869,683.87 273.277,684.459 272.737,685.026 272.243,685.571 271.794,686.092 271.387,686.586 271.022,687.053 270.699,687.489 
	270.415,687.893 270.17,688.268 269.957,688.602 269.781,688.901 269.634,689.165 269.515,689.385 269.424,689.569 269.355,689.709 
	269.316,689.807 269.292,689.86 267.594,694.403 "/>
<polyline id="gearpoly0_12_" fill="#DEDEDD" stroke="#454545" stroke-miterlimit="10" points="322.67,720.823 325.092,716.624 
	325.118,716.575 325.166,716.479 325.232,716.336 325.315,716.151 325.413,715.917 325.519,715.633 325.636,715.307 
	325.761,714.934 325.892,714.506 326.021,714.026 326.153,713.499 326.281,712.924 326.405,712.297 326.519,711.618 
	326.623,710.887 326.716,710.106 326.794,709.276 326.859,708.399 326.898,707.467 326.916,706.489 326.913,705.463 
	326.877,704.389 326.812,703.262 326.721,702.096 326.593,700.881 326.43,699.622 326.221,698.321 325.976,696.975 325.688,695.588 
	325.357,694.163 324.976,692.702 324.316,691.747 321.433,690.608 320.303,690.856 319.022,691.663 317.807,692.477 316.649,693.29 
	315.552,694.106 314.51,694.917 313.531,695.723 312.605,696.52 311.74,697.311 310.929,698.086 310.167,698.852 309.463,699.596 
	308.808,700.325 308.2,701.032 307.645,701.717 307.133,702.377 306.67,703.008 306.25,703.612 305.871,704.186 305.53,704.729 
	305.229,705.239 304.964,705.711 304.733,706.149 304.538,706.553 304.37,706.911 304.233,707.229 304.121,707.51 304.031,707.745 
	303.965,707.938 303.915,708.084 303.889,708.188 303.871,708.243 302.768,712.967 "/>
<polyline id="gearpoly0_13_" fill="#DEDEDD" stroke="#454545" stroke-miterlimit="10" points="360.771,732.125 362.635,727.651 
	362.655,727.6 362.69,727.499 362.738,727.35 362.797,727.155 362.863,726.909 362.932,726.616 363.007,726.276 363.083,725.889 
	363.158,725.45 363.225,724.956 363.288,724.417 363.342,723.831 363.385,723.194 363.41,722.504 363.42,721.766 363.412,720.979 
	363.384,720.147 363.336,719.268 363.256,718.338 363.148,717.366 363.015,716.35 362.841,715.29 362.634,714.18 362.394,713.036 
	362.111,711.846 361.788,710.618 361.414,709.354 360.999,708.051 360.537,706.713 360.026,705.34 359.461,703.94 358.686,703.079 
	355.68,702.317 354.591,702.708 353.424,703.672 352.322,704.635 351.278,705.588 350.294,706.538 349.364,707.477 348.497,708.401 
	347.681,709.309 346.924,710.206 346.218,711.079 345.561,711.934 344.957,712.762 344.4,713.569 343.889,714.348 343.425,715.1 
	343.002,715.819 342.624,716.504 342.284,717.157 341.981,717.774 341.713,718.356 341.479,718.901 341.277,719.403 
	341.104,719.866 340.963,720.292 340.842,720.668 340.747,721 340.672,721.295 340.612,721.54 340.571,721.739 340.54,721.891 
	340.527,721.997 340.518,722.053 340.026,726.879 "/>
<polyline id="gearpoly0_14_" fill="#DEDEDD" stroke="#454545" stroke-miterlimit="10" points="400.003,738.463 401.28,733.788 
	401.294,733.735 401.316,733.629 401.344,733.475 401.377,733.276 401.412,733.022 401.442,732.723 401.473,732.375 
	401.499,731.983 401.518,731.538 401.521,731.04 401.515,730.497 401.493,729.909 401.454,729.272 401.391,728.584 401.307,727.85 
	401.198,727.073 401.062,726.25 400.903,725.383 400.705,724.473 400.475,723.522 400.212,722.53 399.903,721.5 399.557,720.428 
	399.172,719.323 398.74,718.18 398.262,717.002 397.729,715.797 397.151,714.559 396.522,713.29 395.841,711.995 395.101,710.678 
	394.221,709.922 391.143,709.551 390.112,710.077 389.078,711.184 388.109,712.28 387.195,713.358 386.341,714.426 385.539,715.477 
	384.797,716.502 384.104,717.508 383.467,718.495 382.879,719.452 382.336,720.385 381.844,721.282 381.395,722.153 
	380.986,722.991 380.623,723.795 380.296,724.563 380.008,725.292 379.755,725.983 379.533,726.633 379.342,727.245 379.18,727.815 
	379.043,728.338 378.932,728.819 378.845,729.26 378.773,729.649 378.722,729.991 378.685,730.293 378.657,730.543 378.642,730.745 
	378.63,730.901 378.631,731.006 378.629,731.065 378.759,735.915 "/>
<polyline id="gearpoly0_15_" fill="#DEDEDD" stroke="#454545" stroke-miterlimit="10" points="439.723,739.733 440.393,734.932 
	440.401,734.877 440.409,734.77 440.417,734.616 440.424,734.413 440.426,734.155 440.418,733.856 440.403,733.506 440.379,733.114 
	440.34,732.67 440.28,732.176 440.206,731.639 440.108,731.057 439.989,730.432 439.836,729.758 439.661,729.04 439.454,728.282 
	439.215,727.485 438.944,726.645 438.631,725.768 438.282,724.854 437.893,723.903 437.456,722.922 436.975,721.903 
	436.452,720.854 435.877,719.778 435.252,718.67 434.571,717.543 433.838,716.389 433.053,715.211 432.211,714.014 431.309,712.803 
	430.34,712.167 427.239,712.192 426.285,712.844 425.4,714.075 424.58,715.286 423.812,716.471 423.101,717.641 422.439,718.786 
	421.835,719.897 421.275,720.983 420.77,722.042 420.31,723.067 419.891,724.063 419.517,725.014 419.183,725.936 418.885,726.819 
	418.628,727.665 418.401,728.465 418.209,729.225 418.047,729.944 417.91,730.618 417.798,731.249 417.71,731.834 417.642,732.372 
	417.593,732.862 417.562,733.311 417.542,733.706 417.534,734.051 417.536,734.356 417.541,734.608 417.551,734.809 417.56,734.965 
	417.574,735.069 417.58,735.127 418.328,739.92 "/>
<polyline id="gearpoly0_16_" fill="#DEDEDD" stroke="#454545" stroke-miterlimit="10" points="479.282,735.913 479.331,731.065 
	479.331,731.01 479.325,730.903 479.313,730.749 479.295,730.547 479.264,730.29 479.219,729.995 479.159,729.651 479.084,729.264 
	478.991,728.829 478.868,728.346 478.723,727.823 478.553,727.258 478.354,726.655 478.118,726.004 477.85,725.315 477.549,724.59 
	477.209,723.831 476.834,723.032 476.413,722.202 475.948,721.34 475.442,720.448 474.883,719.53 474.276,718.581 473.624,717.608 
	472.915,716.614 472.155,715.594 471.333,714.563 470.459,713.512 469.53,712.446 468.542,711.366 467.491,710.28 466.45,709.772 
	463.377,710.194 462.514,710.963 461.793,712.297 461.135,713.602 460.526,714.875 459.969,716.127 459.459,717.348 
	459.002,718.528 458.586,719.676 458.219,720.79 457.897,721.866 457.608,722.907 457.358,723.899 457.145,724.856 456.961,725.768 
	456.815,726.641 456.694,727.465 456.6,728.243 456.53,728.975 456.481,729.663 456.45,730.301 456.438,730.893 456.44,731.436 
	456.454,731.928 456.481,732.377 456.51,732.772 456.547,733.116 456.588,733.417 456.625,733.667 456.661,733.864 456.69,734.018 
	456.717,734.12 456.731,734.178 458.084,738.834 "/>
<polyline id="gearpoly0_17_" fill="#DEDEDD" stroke="#454545" stroke-miterlimit="10" points="518.026,727.065 517.454,722.25 
	517.448,722.196 517.428,722.09 517.397,721.938 517.354,721.743 517.29,721.491 517.206,721.204 517.104,720.87 516.981,720.497 
	516.831,720.077 516.647,719.614 516.438,719.114 516.196,718.575 515.922,718.002 515.606,717.387 515.252,716.737 514.86,716.057 
	514.426,715.348 513.952,714.602 513.426,713.833 512.856,713.04 512.239,712.217 511.569,711.379 510.844,710.516 510.073,709.633 
	509.243,708.739 508.358,707.825 507.413,706.907 506.413,705.977 505.352,705.038 504.235,704.092 503.055,703.151 501.956,702.78 
	498.963,703.59 498.206,704.465 497.663,705.879 497.176,707.258 496.733,708.598 496.342,709.911 495.993,711.188 495.69,712.417 
	495.424,713.608 495.204,714.76 495.018,715.868 494.866,716.938 494.745,717.954 494.657,718.93 494.592,719.858 494.559,720.743 
	494.543,721.575 494.549,722.358 494.575,723.094 494.612,723.782 494.665,724.418 494.729,725.008 494.799,725.545 
	494.875,726.034 494.959,726.475 495.04,726.862 495.12,727.198 495.2,727.491 495.268,727.735 495.329,727.926 495.377,728.075 
	495.417,728.172 495.438,728.229 497.377,732.672 "/>
<polyline id="gearpoly0_18_" fill="#DEDEDD" stroke="#454545" stroke-miterlimit="10" points="555.321,713.334 554.137,708.633 
	554.124,708.581 554.09,708.479 554.042,708.331 553.973,708.143 553.877,707.901 553.758,707.627 553.614,707.309 553.444,706.956 
	553.243,706.557 553,706.122 552.729,705.653 552.42,705.149 552.077,704.616 551.682,704.047 551.249,703.446 550.772,702.823 
	550.252,702.174 549.688,701.495 549.067,700.799 548.399,700.086 547.684,699.35 546.911,698.604 546.083,697.84 545.204,697.065 
	544.266,696.282 543.272,695.489 542.215,694.702 541.106,693.907 539.934,693.11 538.706,692.315 537.415,691.532 536.278,691.305 
	533.413,692.491 532.774,693.456 532.415,694.928 532.108,696.358 531.842,697.745 531.622,699.096 531.438,700.407 
	531.295,701.665 531.184,702.879 531.112,704.049 531.071,705.172 531.057,706.254 531.067,707.276 531.102,708.256 
	531.157,709.184 531.237,710.067 531.329,710.895 531.434,711.67 531.553,712.397 531.68,713.073 531.813,713.698 531.952,714.276 
	532.09,714.799 532.229,715.272 532.37,715.7 532.497,716.073 532.62,716.397 532.737,716.676 532.834,716.911 532.92,717.092 
	532.987,717.233 533.04,717.325 533.067,717.379 535.559,721.538 "/>
<polyline id="gearpoly0_19_" fill="#DEDEDD" stroke="#454545" stroke-miterlimit="10" points="590.553,694.948 588.778,690.438 
	588.758,690.387 588.713,690.29 588.645,690.151 588.553,689.971 588.428,689.745 588.274,689.489 588.09,689.19 587.877,688.862 
	587.625,688.493 587.329,688.09 587,687.661 586.629,687.202 586.221,686.717 585.756,686.204 585.25,685.663 584.698,685.104 
	584.1,684.53 583.452,683.926 582.749,683.317 581.995,682.694 581.192,682.055 580.329,681.415 579.409,680.764 578.438,680.106 
	577.409,679.45 576.321,678.79 575.174,678.143 573.971,677.499 572.708,676.858 571.385,676.227 570.006,675.614 568.85,675.536 
	566.161,677.079 565.649,678.116 565.483,679.624 565.362,681.081 565.274,682.489 565.229,683.858 565.213,685.182 
	565.233,686.446 565.278,687.667 565.356,688.836 565.458,689.954 565.583,691.03 565.723,692.042 565.883,693.01 566.057,693.922 
	566.25,694.788 566.446,695.596 566.649,696.354 566.862,697.059 567.073,697.711 567.284,698.315 567.497,698.87 567.702,699.372 
	567.899,699.825 568.092,700.229 568.266,700.583 568.43,700.889 568.581,701.151 568.709,701.372 568.817,701.54 568.901,701.67 
	568.965,701.754 569,701.805 572.002,705.612 "/>
<polyline id="gearpoly0_20_" fill="#DEDEDD" stroke="#454545" stroke-miterlimit="10" points="623.145,672.208 620.807,667.959 
	620.782,667.915 620.725,667.823 620.639,667.694 620.526,667.528 620.372,667.319 620.186,667.084 619.967,666.813 
	619.713,666.514 619.417,666.18 619.071,665.819 618.69,665.434 618.264,665.026 617.795,664.598 617.272,664.149 616.698,663.676 
	616.079,663.192 615.413,662.7 614.692,662.184 613.917,661.67 613.09,661.147 612.211,660.618 611.274,660.092 610.28,659.565 
	609.233,659.038 608.127,658.518 606.963,658 605.745,657.508 604.467,657.022 603.131,656.547 601.741,656.092 600.293,655.659 
	599.137,655.731 596.667,657.604 596.293,658.698 596.321,660.215 596.387,661.676 596.481,663.083 596.61,664.448 596.764,665.762 
	596.946,667.014 597.147,668.217 597.374,669.368 597.618,670.463 597.879,671.514 598.147,672.5 598.43,673.44 598.719,674.323 
	599.022,675.157 599.319,675.934 599.618,676.659 599.918,677.331 600.211,677.95 600.497,678.522 600.78,679.045 601.047,679.518 
	601.301,679.94 601.543,680.317 601.762,680.645 601.963,680.928 602.147,681.168 602.301,681.372 602.43,681.524 602.53,681.643 
	602.604,681.719 602.647,681.766 606.112,685.157 "/>
<polyline id="gearpoly0_21_" fill="#DEDEDD" stroke="#454545" stroke-miterlimit="10" points="652.561,645.487 649.7,641.573 
	649.668,641.53 649.6,641.446 649.499,641.331 649.366,641.18 649.188,640.993 648.971,640.784 648.719,640.542 648.43,640.278 
	648.092,639.985 647.704,639.67 647.276,639.338 646.801,638.989 646.284,638.624 645.706,638.245 645.077,637.848 644.401,637.448 
	643.676,637.045 642.897,636.625 642.063,636.215 641.174,635.803 640.237,635.389 639.239,634.989 638.184,634.592 
	637.079,634.204 635.918,633.829 634.696,633.465 633.424,633.133 632.096,632.813 630.711,632.514 629.272,632.241 
	627.782,631.997 626.645,632.215 624.434,634.387 624.204,635.52 624.424,637.022 624.676,638.463 624.95,639.846 625.25,641.184 
	625.573,642.467 625.913,643.686 626.268,644.854 626.639,645.965 627.022,647.02 627.415,648.028 627.805,648.973 628.208,649.868 
	628.608,650.708 629.014,651.497 629.407,652.229 629.795,652.909 630.18,653.538 630.549,654.114 630.907,654.645 631.254,655.127 
	631.581,655.563 631.887,655.95 632.174,656.292 632.434,656.588 632.668,656.844 632.881,657.059 633.061,657.241 633.208,657.374 
	633.323,657.481 633.407,657.547 633.454,657.586 637.323,660.506 "/>
<polyline id="gearpoly0_22_" fill="#DEDEDD" stroke="#454545" stroke-miterlimit="10" points="678.319,615.223 674.981,611.708 
	674.944,611.668 674.866,611.594 674.75,611.493 674.598,611.36 674.397,611.198 674.157,611.018 673.877,610.809 673.555,610.584 
	673.184,610.336 672.758,610.075 672.292,609.801 671.776,609.514 671.215,609.219 670.594,608.917 669.918,608.604 669.2,608.295 
	668.428,607.987 667.6,607.67 666.721,607.37 665.788,607.075 664.805,606.784 663.764,606.514 662.668,606.256 661.522,606.012 
	660.323,605.79 659.063,605.584 657.76,605.418 656.401,605.27 654.991,605.151 653.528,605.065 652.018,605.012 650.918,605.375 
	649.002,607.813 648.918,608.963 649.331,610.426 649.764,611.823 650.213,613.161 650.684,614.448 651.167,615.68 651.661,616.844 
	652.161,617.958 652.67,619.012 653.184,620.008 653.704,620.959 654.213,621.846 654.727,622.682 655.229,623.463 655.733,624.194 
	656.217,624.872 656.69,625.495 657.153,626.071 657.592,626.594 658.014,627.075 658.42,627.508 658.799,627.899 659.153,628.243 
	659.481,628.545 659.776,628.807 660.043,629.032 660.282,629.217 660.483,629.374 660.647,629.487 660.772,629.579 
	660.864,629.633 660.917,629.668 665.127,632.069 "/>
<polyline id="gearpoly0_23_" fill="#DEDEDD" stroke="#454545" stroke-miterlimit="10" points="699.995,581.915 696.235,578.854 
	696.194,578.821 696.106,578.756 695.979,578.67 695.813,578.557 695.59,578.424 695.329,578.276 695.026,578.104 694.678,577.922 
	694.28,577.725 693.823,577.518 693.325,577.307 692.776,577.09 692.182,576.868 691.528,576.647 690.819,576.424 690.065,576.209 
	689.262,576 688.401,575.793 687.489,575.608 686.526,575.434 685.512,575.272 684.446,575.137 683.327,575.022 682.159,574.926 
	680.94,574.86 679.665,574.817 678.352,574.819 676.985,574.844 675.571,574.907 674.11,575.008 672.604,575.151 671.561,575.651 
	669.973,578.313 670.038,579.465 670.631,580.864 671.241,582.192 671.856,583.463 672.489,584.678 673.125,585.84 673.764,586.93 
	674.401,587.971 675.043,588.952 675.68,589.874 676.315,590.75 676.934,591.565 677.551,592.329 678.151,593.04 678.743,593.7 
	679.309,594.309 679.858,594.866 680.389,595.379 680.893,595.842 681.374,596.264 681.831,596.643 682.256,596.983 
	682.651,597.278 683.016,597.536 683.342,597.756 683.635,597.946 683.897,598.1 684.114,598.229 684.292,598.321 684.428,598.395 
	684.528,598.44 684.583,598.465 689.065,600.309 "/>
<polyline id="gearpoly0_24_" fill="#DEDEDD" stroke="#454545" stroke-miterlimit="10" points="717.233,546.108 713.114,543.551 
	713.069,543.524 712.973,543.471 712.836,543.403 712.657,543.313 712.42,543.208 712.141,543.094 711.819,542.963 711.45,542.827 
	711.03,542.682 710.549,542.538 710.03,542.389 709.458,542.245 708.84,542.1 708.163,541.965 707.43,541.834 706.657,541.719 
	705.833,541.614 704.952,541.518 704.024,541.452 703.045,541.403 702.022,541.372 700.946,541.374 699.821,541.403 
	698.651,541.456 697.434,541.547 696.163,541.667 694.862,541.836 693.51,542.038 692.114,542.28 690.678,542.569 689.204,542.901 
	688.233,543.53 686.999,546.374 687.209,547.508 687.979,548.821 688.75,550.059 689.526,551.241 690.307,552.366 691.086,553.438 
	691.86,554.436 692.624,555.387 693.387,556.278 694.137,557.112 694.879,557.899 695.598,558.627 696.307,559.305 696.993,559.934 
	697.663,560.514 698.303,561.045 698.918,561.528 699.512,561.967 700.071,562.364 700.6,562.719 701.104,563.038 701.569,563.321 
	701.999,563.563 702.393,563.77 702.743,563.948 703.059,564.1 703.336,564.219 703.571,564.319 703.756,564.387 703.903,564.442 
	704.006,564.475 704.065,564.493 708.747,565.749 "/>
<polyline id="gearpoly0_25_" fill="#DEDEDD" stroke="#454545" stroke-miterlimit="10" points="729.752,508.389 725.338,506.381 
	725.292,506.36 725.19,506.319 725.045,506.268 724.856,506.204 724.608,506.129 724.317,506.051 723.979,505.963 723.596,505.875 
	723.161,505.788 722.667,505.704 722.131,505.624 721.545,505.553 720.917,505.487 720.227,505.442 719.485,505.407 718.7,505.389 
	717.87,505.391 716.985,505.409 716.055,505.461 715.081,505.538 714.059,505.637 712.993,505.778 711.881,505.95 710.727,506.153 
	709.532,506.399 708.288,506.68 707.018,507.014 705.704,507.387 704.35,507.805 702.963,508.276 701.542,508.795 700.661,509.542 
	699.799,512.52 700.155,513.618 701.083,514.821 702.01,515.952 702.928,517.026 703.848,518.04 704.758,519.002 705.653,519.895 
	706.532,520.741 707.403,521.526 708.252,522.256 709.088,522.944 709.895,523.573 710.684,524.155 711.446,524.69 712.186,525.18 
	712.887,525.625 713.559,526.026 714.204,526.385 714.809,526.708 715.379,526.993 715.92,527.243 716.417,527.465 716.874,527.649 
	717.292,527.805 717.663,527.938 717.995,528.045 718.286,528.129 718.53,528.2 718.725,528.243 718.875,528.278 718.983,528.297 
	719.043,528.307 723.846,528.956 "/>
<polyline id="gearpoly0_26_" fill="#DEDEDD" stroke="#454545" stroke-miterlimit="10" points="737.344,469.381 732.711,467.954 
	732.663,467.938 732.555,467.911 732.405,467.879 732.209,467.838 731.954,467.797 731.655,467.756 731.309,467.711 
	730.918,467.674 730.475,467.643 729.973,467.624 729.434,467.612 728.844,467.616 728.209,467.631 727.522,467.674 726.78,467.735 
	726,467.819 725.176,467.926 724.301,468.057 723.385,468.227 722.428,468.428 721.43,468.659 720.389,468.934 719.309,469.247 
	718.19,469.594 717.036,469.991 715.836,470.43 714.622,470.924 713.366,471.461 712.077,472.049 710.76,472.694 709.418,473.391 
	708.639,474.243 708.167,477.307 708.659,478.35 709.733,479.426 710.797,480.428 711.846,481.375 712.887,482.264 713.913,483.102 
	714.917,483.874 715.893,484.6 716.858,485.266 717.795,485.883 718.713,486.458 719.592,486.977 720.45,487.456 721.274,487.887 
	722.071,488.28 722.823,488.631 723.54,488.942 724.227,489.217 724.868,489.459 725.469,489.668 726.038,489.848 726.559,490.004 
	727.036,490.129 727.469,490.229 727.854,490.315 728.198,490.379 728.497,490.424 728.749,490.463 728.948,490.481 729.1,490.497 
	729.209,490.502 729.272,490.504 734.118,490.532 "/>
<polyline id="gearpoly0_27_" fill="#DEDEDD" stroke="#454545" stroke-miterlimit="10" points="739.887,429.721 735.108,428.897 
	735.059,428.889 734.95,428.875 734.795,428.863 734.596,428.847 734.338,428.839 734.036,428.838 733.688,428.837 733.295,428.85 
	732.85,428.875 732.352,428.92 731.815,428.977 731.231,429.058 730.604,429.155 729.926,429.285 729.198,429.439 728.436,429.623 
	727.631,429.833 726.782,430.075 725.897,430.362 724.971,430.684 724.01,431.04 723.014,431.446 721.981,431.893 720.917,432.383 
	719.823,432.924 718.69,433.512 717.547,434.157 716.37,434.85 715.167,435.598 713.946,436.407 712.702,437.27 712.04,438.213 
	711.961,441.313 712.584,442.286 713.786,443.215 714.969,444.073 716.131,444.877 717.278,445.625 718.403,446.327 
	719.497,446.963 720.559,447.559 721.6,448.096 722.608,448.588 723.592,449.04 724.53,449.444 725.442,449.807 726.313,450.131 
	727.155,450.418 727.946,450.67 728.696,450.887 729.413,451.073 730.081,451.231 730.704,451.36 731.29,451.465 731.827,451.555 
	732.315,451.618 732.758,451.663 733.151,451.698 733.5,451.717 733.803,451.723 734.057,451.729 734.256,451.723 734.411,451.717 
	734.522,451.709 734.581,451.704 739.391,451.112 "/>
<polyline id="gearpoly0_28_" fill="#DEDEDD" stroke="#454545" stroke-miterlimit="10" points="737.336,390.062 732.493,389.856 
	732.442,389.854 732.331,389.855 732.178,389.862 731.977,389.872 731.719,389.896 731.42,389.934 731.075,389.978 730.688,390.041 
	730.25,390.123 729.76,390.231 729.235,390.356 728.667,390.511 728.057,390.688 727.403,390.903 726.7,391.149 725.967,391.428 
	725.198,391.74 724.383,392.089 723.542,392.487 722.667,392.924 721.758,393.399 720.823,393.929 719.856,394.506 718.862,395.127 
	717.846,395.804 716.797,396.532 715.749,397.318 714.668,398.157 713.571,399.052 712.463,400.009 711.34,401.024 710.803,402.046 
	711.124,405.129 711.864,406.014 713.176,406.782 714.459,407.481 715.715,408.132 716.948,408.727 718.151,409.277 
	719.317,409.769 720.448,410.224 721.549,410.625 722.612,410.983 723.647,411.306 724.627,411.586 725.579,411.831 726.485,412.04 
	727.356,412.216 728.172,412.366 728.944,412.486 729.678,412.577 730.36,412.648 730.995,412.698 731.59,412.728 732.135,412.747 
	732.627,412.747 733.073,412.733 733.465,412.718 733.815,412.693 734.116,412.661 734.37,412.635 734.567,412.602 734.717,412.578 
	734.827,412.556 734.883,412.542 739.581,411.34 "/>
<polyline id="gearpoly0_29_" fill="#DEDEDD" stroke="#454545" stroke-miterlimit="10" points="729.737,351.054 724.905,351.47 
	724.854,351.474 724.745,351.489 724.594,351.516 724.397,351.551 724.143,351.609 723.854,351.684 723.516,351.772 
	723.139,351.884 722.715,352.021 722.245,352.191 721.739,352.382 721.194,352.609 720.612,352.862 719.991,353.159 
	719.325,353.493 718.633,353.863 717.911,354.271 717.149,354.721 716.364,355.224 715.551,355.769 714.711,356.356 
	713.852,357.001 712.967,357.698 712.061,358.441 711.139,359.242 710.194,360.097 709.252,361.011 708.29,361.981 707.315,363.01 
	706.338,364.101 705.354,365.251 704.954,366.333 705.665,369.35 706.512,370.132 707.911,370.727 709.274,371.256 710.604,371.741 
	711.901,372.173 713.167,372.565 714.385,372.904 715.563,373.21 716.708,373.467 717.807,373.686 718.874,373.875 719.883,374.027 
	720.858,374.148 721.782,374.24 722.67,374.303 723.499,374.347 724.28,374.368 725.02,374.364 725.706,374.347 726.342,374.315 
	726.936,374.269 727.479,374.218 727.965,374.155 728.407,374.085 728.793,374.02 729.137,373.951 729.432,373.88 729.678,373.822 
	729.872,373.764 730.018,373.72 730.122,373.685 730.178,373.664 734.682,371.871 "/>
<polyline id="gearpoly0_30_" fill="#DEDEDD" stroke="#454545" stroke-miterlimit="10" points="717.209,313.339 712.471,314.369 
	712.42,314.38 712.315,314.409 712.168,314.455 711.977,314.514 711.733,314.604 711.456,314.716 711.131,314.846 710.772,315.005 
	710.37,315.196 709.924,315.424 709.448,315.678 708.938,315.973 708.391,316.298 707.813,316.672 707.196,317.089 706.557,317.544 
	705.893,318.042 705.194,318.585 704.481,319.184 703.745,319.829 702.985,320.519 702.215,321.269 701.428,322.072 
	700.624,322.925 699.813,323.837 698.983,324.807 698.167,325.833 697.336,326.919 696.502,328.063 695.672,329.271 
	694.844,330.537 694.583,331.662 695.674,334.562 696.616,335.23 698.081,335.641 699.499,335.992 700.877,336.302 702.221,336.565 
	703.526,336.792 704.778,336.972 705.987,337.126 707.155,337.233 708.272,337.311 709.354,337.361 710.375,337.383 
	711.358,337.379 712.286,337.351 713.174,337.3 714.002,337.237 714.778,337.159 715.512,337.06 716.19,336.956 716.819,336.843 
	717.401,336.721 717.932,336.602 718.409,336.477 718.834,336.351 719.211,336.236 719.543,336.124 719.827,336.016 
	720.065,335.927 720.247,335.844 720.387,335.783 720.487,335.734 720.538,335.706 724.778,333.352 "/>
<polyline id="gearpoly0_31_" fill="#DEDEDD" stroke="#454545" stroke-miterlimit="10" points="699.963,277.535 695.395,279.163 
	695.346,279.18 695.245,279.222 695.106,279.286 694.922,279.37 694.694,279.49 694.432,279.636 694.127,279.807 693.792,280.011 
	693.417,280.251 693.004,280.535 692.563,280.848 692.094,281.206 691.596,281.598 691.069,282.042 690.512,282.535 
	689.936,283.069 689.34,283.646 688.717,284.275 688.086,284.96 687.438,285.694 686.774,286.475 686.106,287.317 685.428,288.215 
	684.739,289.164 684.051,290.172 683.354,291.239 682.674,292.362 681.989,293.545 681.309,294.787 680.639,296.09 679.979,297.452 
	679.866,298.601 681.319,301.338 682.338,301.88 683.842,302.1 685.293,302.267 686.702,302.398 688.067,302.488 689.389,302.546 
	690.657,302.564 691.874,302.562 693.045,302.519 694.165,302.453 695.243,302.364 696.26,302.256 697.233,302.126 698.151,301.979 
	699.026,301.815 699.838,301.647 700.598,301.47 701.313,301.278 701.971,301.088 702.581,300.896 703.143,300.701 703.653,300.515 
	704.11,300.33 704.518,300.15 704.877,299.988 705.192,299.834 705.458,299.691 705.682,299.572 705.854,299.467 705.985,299.388 
	706.077,299.328 706.124,299.293 710.028,296.417 "/>
<polyline id="gearpoly0_32_" fill="#DEDEDD" stroke="#454545" stroke-miterlimit="10" points="678.28,244.23 673.958,246.429 
	673.911,246.453 673.815,246.507 673.686,246.588 673.516,246.694 673.303,246.843 673.063,247.022 672.782,247.23 672.475,247.475 
	672.133,247.762 671.76,248.096 671.364,248.463 670.946,248.877 670.5,249.33 670.036,249.838 669.545,250.398 669.042,251.001 
	668.526,251.649 667.987,252.353 667.45,253.113 666.901,253.924 666.34,254.784 665.788,255.704 665.229,256.682 664.667,257.71 
	664.114,258.798 663.559,259.946 663.03,261.147 662.5,262.408 661.985,263.727 661.487,265.104 661.006,266.539 661.04,267.693 
	662.831,270.222 663.913,270.629 665.432,270.655 666.893,270.635 668.307,270.585 669.672,270.5 670.991,270.388 672.25,270.244 
	673.458,270.086 674.614,269.894 675.715,269.685 676.772,269.459 677.768,269.223 678.717,268.969 679.608,268.706 
	680.454,268.432 681.239,268.161 681.969,267.888 682.655,267.606 683.284,267.333 683.864,267.065 684.397,266.799 684.877,266.55 
	685.307,266.308 685.688,266.078 686.024,265.871 686.317,265.678 686.563,265.502 686.77,265.355 686.926,265.229 687.047,265.134 
	687.129,265.062 687.172,265.022 690.676,261.67 "/>
<polyline id="gearpoly0_33_" fill="#DEDEDD" stroke="#454545" stroke-miterlimit="10" points="652.514,213.972 648.508,216.706 
	648.465,216.735 648.379,216.801 648.26,216.898 648.106,217.025 647.915,217.2 647.698,217.408 647.446,217.65 647.174,217.933 
	646.87,218.261 646.545,218.639 646.198,219.054 645.834,219.519 645.452,220.024 645.055,220.588 644.641,221.207 644.219,221.869 
	643.792,222.577 643.346,223.344 642.911,224.167 642.469,225.041 642.024,225.966 641.592,226.949 641.165,227.99 640.739,229.083 
	640.329,230.232 639.924,231.441 639.553,232.7 639.19,234.018 638.846,235.392 638.53,236.822 638.237,238.307 638.418,239.447 
	640.518,241.726 641.641,241.992 643.153,241.823 644.598,241.616 645.995,241.386 647.336,241.127 648.631,240.847 
	649.862,240.543 651.038,240.232 652.163,239.894 653.227,239.546 654.247,239.187 655.204,238.825 656.112,238.452 
	656.961,238.077 657.766,237.697 658.51,237.328 659.2,236.963 659.844,236.596 660.434,236.246 660.973,235.906 661.467,235.574 
	661.913,235.265 662.309,234.969 662.657,234.693 662.963,234.445 663.229,234.216 663.45,234.011 663.637,233.838 663.776,233.693 
	663.883,233.583 663.956,233.501 663.995,233.456 667.04,229.684 "/>
<polyline id="gearpoly0_34_" fill="#DEDEDD" stroke="#454545" stroke-miterlimit="10" points="623.092,187.257 619.469,190.48 
	619.43,190.515 619.354,190.592 619.247,190.704 619.11,190.849 618.944,191.046 618.754,191.28 618.536,191.553 618.301,191.868 
	618.043,192.233 617.768,192.649 617.479,193.105 617.178,193.613 616.862,194.163 616.542,194.773 616.209,195.439 
	615.874,196.149 615.542,196.907 615.196,197.725 614.87,198.597 614.545,199.52 614.221,200.494 613.92,201.524 613.627,202.611 
	613.344,203.75 613.086,204.942 612.838,206.193 612.633,207.489 612.44,208.842 612.276,210.249 612.145,211.708 612.043,213.218 
	612.37,214.326 614.743,216.317 615.891,216.437 617.368,216.077 618.776,215.686 620.131,215.28 621.43,214.851 622.678,214.408 
	623.86,213.95 624.987,213.49 626.057,213.011 627.069,212.53 628.034,212.043 628.938,211.562 629.792,211.076 630.586,210.596 
	631.334,210.116 632.026,209.654 632.663,209.205 633.254,208.758 633.795,208.335 634.286,207.929 634.733,207.537 
	635.135,207.173 635.491,206.83 635.801,206.511 636.073,206.226 636.307,205.965 636.499,205.733 636.665,205.538 636.784,205.375 
	636.875,205.253 636.936,205.164 636.969,205.113 639.508,200.983 "/>
<polyline id="gearpoly0_35_" fill="#DEDEDD" stroke="#454545" stroke-miterlimit="10" points="590.495,164.523 587.313,168.184 
	587.28,168.223 587.213,168.309 587.122,168.434 587.004,168.596 586.866,168.812 586.708,169.069 586.526,169.367 586.334,169.709 
	586.124,170.105 585.905,170.553 585.674,171.042 585.442,171.583 585.198,172.169 584.959,172.816 584.715,173.519 
	584.473,174.266 584.241,175.06 584.002,175.915 583.792,176.823 583.588,177.778 583.389,178.786 583.223,179.847 583.073,180.962 
	582.938,182.127 582.833,183.343 582.749,184.616 582.709,185.927 582.692,187.294 582.708,188.71 582.764,190.174 582.856,191.685 
	583.323,192.742 585.93,194.413 587.084,194.385 588.504,193.839 589.85,193.271 591.141,192.695 592.375,192.104 593.555,191.505 
	594.668,190.899 595.729,190.299 596.729,189.687 597.67,189.081 598.567,188.475 599.403,187.881 600.184,187.291 600.913,186.712 
	601.592,186.141 602.219,185.594 602.793,185.067 603.325,184.549 603.805,184.06 604.241,183.594 604.635,183.148 604.987,182.736 
	605.295,182.35 605.563,181.995 605.795,181.676 605.995,181.389 606.155,181.134 606.293,180.919 606.391,180.743 606.467,180.61 
	606.514,180.513 606.542,180.458 608.532,176.038 "/>
<polyline id="gearpoly0_36_" fill="#DEDEDD" stroke="#454545" stroke-miterlimit="10" points="555.258,146.145 552.571,150.183 
	552.543,150.226 552.487,150.32 552.413,150.456 552.317,150.63 552.208,150.863 552.084,151.138 551.942,151.457 551.795,151.821 
	551.637,152.24 551.477,152.712 551.313,153.227 551.149,153.793 550.983,154.406 550.829,155.078 550.676,155.806 550.532,156.578 
	550.403,157.395 550.276,158.273 550.182,159.201 550.104,160.175 550.036,161.2 550.006,162.273 549.999,163.398 550.014,164.571 
	550.067,165.791 550.145,167.063 550.274,168.369 550.43,169.727 550.627,171.129 550.872,172.574 551.157,174.06 551.752,175.049 
	554.553,176.374 555.694,176.198 557.032,175.475 558.295,174.74 559.502,174.003 560.651,173.259 561.745,172.514 562.772,171.771 
	563.745,171.041 564.659,170.305 565.514,169.583 566.327,168.868 567.081,168.172 567.78,167.487 568.428,166.82 569.028,166.167 
	569.581,165.543 570.083,164.947 570.543,164.366 570.958,163.819 571.331,163.302 571.665,162.809 571.959,162.355 
	572.215,161.933 572.436,161.546 572.627,161.201 572.788,160.891 572.913,160.617 573.024,160.386 573.098,160.199 
	573.157,160.057 573.192,159.956 573.211,159.897 574.62,155.258 "/>
<polyline id="gearpoly0_37_" fill="#DEDEDD" stroke="#454545" stroke-miterlimit="10" points="517.961,132.423 515.813,136.772 
	515.79,136.818 515.747,136.918 515.69,137.063 515.618,137.249 515.538,137.494 515.452,137.781 515.35,138.116 515.252,138.496 
	515.149,138.932 515.051,139.421 514.952,139.952 514.864,140.535 514.776,141.164 514.709,141.849 514.653,142.591 
	514.608,143.375 514.584,144.202 514.571,145.09 514.596,146.022 514.643,146.998 514.706,148.022 514.813,149.091 514.952,150.208 
	515.116,151.369 515.325,152.572 515.565,153.825 515.86,155.103 516.19,156.43 516.563,157.795 516.991,159.196 517.461,160.634 
	518.18,161.539 521.127,162.494 522.237,162.174 523.471,161.286 524.629,160.396 525.731,159.511 526.776,158.626 527.764,157.747 
	528.69,156.878 529.563,156.03 530.374,155.183 531.131,154.358 531.844,153.544 532.502,152.758 533.108,151.989 533.667,151.245 
	534.178,150.52 534.647,149.831 535.069,149.176 535.45,148.541 535.792,147.945 536.094,147.384 536.364,146.853 536.598,146.365 
	536.797,145.914 536.967,145.502 537.112,145.134 537.231,144.807 537.323,144.519 537.403,144.276 537.452,144.081 
	537.493,143.933 537.512,143.828 537.526,143.767 538.329,138.986 "/>
<polyline id="gearpoly0_38_" fill="#DEDEDD" stroke="#454545" stroke-miterlimit="10" points="479.215,123.584 477.639,128.172 
	477.624,128.22 477.592,128.326 477.555,128.476 477.508,128.669 477.461,128.923 477.411,129.219 477.354,129.563 477.305,129.953 
	477.258,130.399 477.223,130.896 477.194,131.436 477.182,132.025 477.174,132.66 477.196,133.349 477.233,134.092 477.29,134.875 
	477.372,135.698 477.473,136.58 477.618,137.501 477.788,138.463 477.981,139.472 478.225,140.517 478.504,141.608 478.815,142.739 
	479.176,143.904 479.575,145.116 480.032,146.346 480.528,147.62 481.073,148.926 481.676,150.261 482.329,151.627 483.155,152.433 
	486.2,153.003 487.26,152.543 488.37,151.505 489.405,150.474 490.385,149.456 491.309,148.445 492.176,147.446 492.983,146.466 
	493.741,145.513 494.438,144.569 495.083,143.654 495.684,142.756 496.239,141.893 496.741,141.052 497.198,140.243 
	497.612,139.458 497.991,138.715 498.325,138.011 498.622,137.333 498.885,136.699 499.114,136.104 499.313,135.542 
	499.483,135.028 499.622,134.555 499.737,134.125 499.834,133.742 499.911,133.402 499.965,133.105 500.012,132.854 
	500.036,132.653 500.057,132.502 500.065,132.395 500.069,132.333 500.254,127.489 "/>
<polyline id="gearpoly0_39_" fill="#DEDEDD" stroke="#454545" stroke-miterlimit="10" points="439.657,119.772 438.682,124.524 
	438.672,124.574 438.655,124.682 438.637,124.836 438.614,125.034 438.6,125.292 438.588,125.592 438.575,125.94 438.577,126.333 
	438.588,126.782 438.618,127.279 438.657,127.818 438.719,128.404 438.793,129.034 438.903,129.715 439.036,130.447 
	439.192,131.217 439.379,132.022 439.59,132.884 439.852,133.78 440.143,134.711 440.465,135.687 440.84,136.693 441.256,137.739 
	441.711,138.821 442.217,139.93 442.768,141.082 443.377,142.243 444.032,143.443 444.741,144.669 445.51,145.916 446.331,147.187 
	447.254,147.88 450.348,148.057 451.338,147.465 452.307,146.293 453.202,145.139 454.043,144.003 454.831,142.882 455.563,141.781 
	456.239,140.706 456.868,139.664 457.438,138.638 457.959,137.648 458.444,136.681 458.881,135.753 459.272,134.856 
	459.624,133.995 459.934,133.164 460.213,132.377 460.454,131.637 460.663,130.926 460.842,130.264 460.993,129.644 
	461.118,129.062 461.221,128.531 461.299,128.043 461.36,127.603 461.407,127.209 461.438,126.863 461.454,126.562 461.469,126.306 
	461.467,126.104 461.469,125.952 461.461,125.844 461.459,125.782 461.022,120.955 "/>
<polyline id="gearpoly0_40_" fill="#DEDEDD" stroke="#454545" stroke-miterlimit="10" points="399.938,121.05 399.576,125.888 
	399.573,125.938 399.57,126.048 399.572,126.204 399.575,126.402 399.593,126.659 399.62,126.958 399.652,127.306 399.703,127.696 
	399.772,128.139 399.865,128.628 399.973,129.159 400.11,129.731 400.264,130.347 400.459,131.008 400.685,131.716 400.938,132.46 
	401.227,133.235 401.548,134.063 401.921,134.917 402.329,135.805 402.773,136.731 403.274,137.68 403.82,138.665 404.409,139.68 
	405.054,140.715 405.746,141.787 406.499,142.861 407.303,143.967 408.162,145.092 409.084,146.23 410.06,147.387 411.065,147.956 
	414.156,147.735 415.062,147.022 415.873,145.736 416.614,144.476 417.304,143.242 417.941,142.03 418.526,140.845 419.059,139.692 
	419.549,138.577 419.982,137.488 420.375,136.439 420.73,135.417 421.047,134.442 421.319,133.501 421.557,132.603 421.759,131.739 
	421.936,130.923 422.08,130.158 422.195,129.426 422.289,128.746 422.359,128.113 422.408,127.52 422.443,126.979 422.459,126.485 
	422.462,126.041 422.458,125.645 422.445,125.297 422.423,124.997 422.404,124.741 422.377,124.541 422.359,124.39 422.339,124.284 
	422.328,124.223 421.277,119.491 "/>
<polyline id="gearpoly0_41_" fill="#DEDEDD" stroke="#454545" stroke-miterlimit="10" points="360.705,127.397 360.967,132.241 
	360.971,132.291 360.981,132.4 361.003,132.555 361.031,132.75 361.081,133.004 361.147,133.297 361.224,133.638 361.323,134.018 
	361.449,134.449 361.604,134.922 361.778,135.434 361.988,135.984 362.219,136.575 362.497,137.207 362.812,137.88 363.158,138.585 
	363.543,139.317 363.967,140.097 364.446,140.896 364.965,141.724 365.524,142.586 366.143,143.464 366.81,144.37 367.523,145.302 
	368.295,146.247 369.119,147.221 370.003,148.189 370.941,149.184 371.938,150.19 372.998,151.201 374.113,152.223 375.184,152.659 
	378.221,152.045 379.029,151.221 379.668,149.842 380.241,148.498 380.768,147.185 381.245,145.902 381.674,144.652 382.055,143.44 
	382.398,142.272 382.688,141.136 382.944,140.046 383.166,138.987 383.355,137.979 383.505,137.012 383.625,136.09 383.716,135.208 
	383.786,134.375 383.832,133.599 383.853,132.858 383.858,132.171 383.848,131.535 383.82,130.94 383.785,130.4 383.738,129.908 
	383.684,129.466 383.63,129.074 383.572,128.731 383.512,128.436 383.461,128.185 383.408,127.989 383.371,127.841 383.337,127.74 
	383.318,127.681 381.672,123.122 "/>
<polyline id="gearpoly0_42_" fill="#DEDEDD" stroke="#454545" stroke-miterlimit="10" points="322.607,138.708 323.486,143.479 
	323.497,143.528 323.521,143.636 323.562,143.786 323.616,143.977 323.697,144.221 323.801,144.503 323.92,144.832 324.067,145.196 
	324.247,145.607 324.461,146.057 324.699,146.542 324.979,147.061 325.282,147.618 325.64,148.208 326.037,148.836 326.472,149.492 
	326.946,150.168 327.467,150.887 328.044,151.619 328.665,152.374 329.33,153.157 330.055,153.948 330.833,154.762 331.66,155.595 
	332.546,156.433 333.487,157.294 334.488,158.141 335.546,159.007 336.662,159.878 337.844,160.745 339.08,161.616 340.197,161.912 
	343.132,160.914 343.828,159.994 344.285,158.544 344.682,157.138 345.036,155.769 345.346,154.435 345.611,153.141 345.833,151.89 
	346.024,150.688 346.168,149.524 346.281,148.41 346.366,147.332 346.425,146.307 346.45,145.329 346.451,144.4 346.428,143.512 
	346.392,142.678 346.338,141.902 346.264,141.165 346.182,140.483 346.089,139.853 345.986,139.267 345.882,138.735 
	345.772,138.253 345.662,137.823 345.559,137.44 345.458,137.107 345.359,136.822 345.277,136.58 345.2,136.393 345.145,136.25 
	345.098,136.154 345.071,136.098 342.855,131.787 "/>
<polyline id="gearpoly0_43_" fill="#DEDEDD" stroke="#454545" stroke-miterlimit="10" points="286.27,154.799 287.751,159.418 
	287.768,159.465 287.806,159.569 287.866,159.712 287.943,159.895 288.055,160.127 288.194,160.394 288.354,160.704 
	288.547,161.046 288.777,161.431 289.047,161.85 289.346,162.301 289.688,162.779 290.062,163.293 290.491,163.833 290.966,164.405 
	291.48,165 292.038,165.61 292.646,166.256 293.312,166.908 294.024,167.578 294.784,168.269 295.604,168.961 296.479,169.668 
	297.407,170.39 298.393,171.107 299.437,171.84 300.537,172.553 301.697,173.276 302.915,173.998 304.198,174.706 305.536,175.412 
	306.682,175.562 309.465,174.198 310.037,173.196 310.306,171.7 310.52,170.255 310.695,168.851 310.832,167.489 310.93,166.171 
	310.989,164.902 311.025,163.685 311.02,162.513 310.989,161.393 310.936,160.313 310.862,159.29 310.763,158.316 310.645,157.395 
	310.508,156.517 310.366,155.695 310.213,154.932 310.045,154.209 309.877,153.544 309.704,152.931 309.527,152.363 
	309.355,151.849 309.186,151.385 309.021,150.972 308.87,150.606 308.728,150.289 308.593,150.018 308.48,149.789 308.381,149.613 
	308.307,149.479 308.248,149.39 308.215,149.337 305.466,145.345 "/>
<polyline id="gearpoly0_44_" fill="#DEDEDD" stroke="#454545" stroke-miterlimit="10" points="252.287,175.404 254.348,179.795 
	254.37,179.84 254.421,179.938 254.499,180.073 254.6,180.244 254.739,180.46 254.911,180.707 255.109,180.995 255.345,181.309 
	255.623,181.661 255.943,182.042 256.298,182.452 256.698,182.882 257.135,183.343 257.63,183.825 258.174,184.331 258.76,184.854 
	259.391,185.389 260.077,185.952 260.819,186.513 261.612,187.086 262.455,187.674 263.356,188.257 264.314,188.846 
	265.327,189.443 266.396,190.028 267.525,190.622 268.708,191.188 269.951,191.757 271.251,192.316 272.614,192.854 
	274.031,193.384 275.188,193.387 277.772,191.678 278.212,190.611 278.287,189.092 278.314,187.632 278.31,186.217 278.271,184.849 
	278.199,183.529 278.096,182.263 277.977,181.052 277.82,179.89 277.647,178.783 277.456,177.718 277.252,176.713 277.029,175.76 
	276.794,174.861 276.546,174.009 276.301,173.211 276.051,172.474 275.792,171.779 275.54,171.141 275.291,170.555 275.043,170.014 
	274.807,169.527 274.578,169.087 274.363,168.699 274.166,168.355 273.984,168.059 273.815,167.808 273.675,167.594 
	273.554,167.434 273.463,167.31 273.394,167.229 273.354,167.181 270.117,163.573 "/>
<polyline id="gearpoly0_45_" fill="#DEDEDD" stroke="#454545" stroke-miterlimit="10" points="221.219,200.185 223.824,204.278 
	223.852,204.319 223.915,204.41 224.01,204.533 224.131,204.69 224.297,204.887 224.499,205.109 224.732,205.369 225.007,205.651 
	225.327,205.964 225.694,206.302 226.098,206.663 226.55,207.038 227.042,207.44 227.594,207.854 228.198,208.286 228.847,208.731 
	229.541,209.18 230.294,209.65 231.102,210.112 231.961,210.58 232.872,211.055 233.841,211.517 234.866,211.979 235.947,212.441 
	237.082,212.885 238.278,213.33 239.523,213.74 240.829,214.146 242.189,214.534 243.61,214.894 245.084,215.238 246.23,215.092 
	248.576,213.067 248.875,211.953 248.756,210.437 248.597,208.985 248.41,207.583 248.196,206.23 247.957,204.931 247.692,203.688 
	247.419,202.502 247.116,201.37 246.803,200.293 246.477,199.263 246.146,198.291 245.803,197.375 245.455,196.514 245.1,195.7 
	244.755,194.94 244.413,194.241 244.067,193.584 243.735,192.984 243.413,192.435 243.099,191.93 242.802,191.477 242.519,191.07 
	242.256,190.712 242.017,190.396 241.799,190.126 241.599,189.898 241.433,189.705 241.292,189.561 241.186,189.45 241.106,189.378 
	241.062,189.336 237.39,186.172 "/>
<polyline id="gearpoly0_46_" fill="#DEDEDD" stroke="#454545" stroke-miterlimit="10" points="193.574,228.736 196.682,232.462 
	196.714,232.5 196.789,232.582 196.898,232.692 197.039,232.832 197.229,233.006 197.457,233.2 197.722,233.428 198.03,233.673 
	198.388,233.943 198.795,234.23 199.242,234.537 199.738,234.851 200.277,235.187 200.878,235.527 201.532,235.878 202.232,236.236 
	202.979,236.593 203.785,236.963 204.646,237.318 205.558,237.671 206.522,238.026 207.542,238.361 208.618,238.688 
	209.749,239.008 210.932,239.303 212.175,239.591 213.462,239.839 214.809,240.074 216.208,240.286 217.663,240.46 219.168,240.614 
	220.287,240.323 222.354,238.014 222.509,236.871 222.196,235.382 221.853,233.963 221.488,232.595 221.104,231.282 220.7,230.023 
	220.278,228.825 219.855,227.684 219.41,226.599 218.962,225.572 218.507,224.591 218.054,223.67 217.597,222.805 217.143,221.996 
	216.686,221.234 216.246,220.524 215.818,219.875 215.391,219.268 214.985,218.715 214.595,218.211 214.219,217.751 
	213.867,217.339 213.533,216.972 213.228,216.651 212.95,216.368 212.699,216.128 212.472,215.928 212.282,215.757 212.124,215.632 
	212.005,215.536 211.917,215.475 211.867,215.439 207.82,212.77 "/>
<polyline id="gearpoly0_47_" fill="#DEDEDD" stroke="#454545" stroke-miterlimit="10" points="169.808,260.588 173.366,263.886 
	173.403,263.918 173.488,263.991 173.61,264.086 173.768,264.207 173.979,264.355 174.229,264.519 174.521,264.711 174.858,264.915 
	175.247,265.136 175.688,265.369 176.171,265.616 176.703,265.864 177.281,266.128 177.92,266.389 178.614,266.654 179.354,266.919 
	180.14,267.178 180.987,267.442 181.886,267.683 182.836,267.917 183.838,268.146 184.892,268.348 186.001,268.534 187.163,268.708 
	188.374,268.849 189.644,268.975 190.952,269.056 192.317,269.118 193.732,269.149 195.198,269.136 196.71,269.095 197.783,268.664 
	199.538,266.109 199.545,264.956 199.045,263.519 198.522,262.156 197.986,260.846 197.437,259.592 196.876,258.396 
	196.304,257.261 195.738,256.183 195.158,255.165 194.582,254.203 194.006,253.289 193.438,252.434 192.874,251.633 192.32,250.889 
	191.771,250.192 191.243,249.544 190.736,248.955 190.234,248.408 189.762,247.911 189.31,247.461 188.878,247.053 188.477,246.689 
	188.099,246.369 187.754,246.089 187.443,245.844 187.164,245.638 186.912,245.468 186.703,245.323 186.529,245.22 186.398,245.139 
	186.305,245.09 186.25,245.061 181.896,242.931 "/>
<polyline id="gearpoly0_48_" fill="#DEDEDD" stroke="#454545" stroke-miterlimit="10" points="150.31,295.218 154.261,298.034 
	154.302,298.061 154.395,298.122 154.528,298.2 154.699,298.3 154.928,298.421 155.198,298.551 155.512,298.704 155.872,298.862 
	156.286,299.033 156.753,299.208 157.264,299.39 157.823,299.568 158.43,299.757 159.098,299.934 159.819,300.107 160.587,300.276 
	161.399,300.432 162.273,300.585 163.195,300.71 164.168,300.821 165.191,300.919 166.262,300.985 167.386,301.028 168.561,301.051 
	169.78,301.036 171.055,300.999 172.363,300.912 173.725,300.799 175.133,300.648 176.585,300.448 178.079,300.214 179.088,299.649 
	180.502,296.891 180.361,295.747 179.682,294.386 178.989,293.101 178.29,291.87 177.584,290.697 176.875,289.582 176.162,288.529 
	175.464,287.533 174.759,286.597 174.063,285.717 173.376,284.884 172.704,284.108 172.041,283.387 171.396,282.719 
	170.763,282.098 170.157,281.523 169.579,281.004 169.011,280.525 168.479,280.092 167.973,279.705 167.492,279.355 
	167.048,279.046 166.632,278.776 166.254,278.542 165.915,278.339 165.611,278.171 165.34,278.034 165.114,277.917 164.929,277.837 
	164.788,277.774 164.689,277.738 164.632,277.715 160.04,276.16 "/>
<polyline id="gearpoly0_49_" fill="#DEDEDD" stroke="#454545" stroke-miterlimit="10" points="135.4,332.056 139.679,334.344 
	139.723,334.365 139.822,334.414 139.965,334.475 140.147,334.552 140.39,334.643 140.675,334.737 141.005,334.849 141.383,334.96 
	141.815,335.076 142.301,335.189 142.83,335.305 143.408,335.411 144.033,335.52 144.719,335.61 145.457,335.689 146.239,335.759 
	147.065,335.81 147.952,335.85 148.882,335.856 149.861,335.841 150.889,335.808 151.959,335.736 153.079,335.635 154.247,335.508 
	155.454,335.336 156.714,335.137 158.001,334.884 159.336,334.597 160.714,334.268 162.128,333.883 163.58,333.461 164.509,332.771 
	165.559,329.855 165.272,328.738 164.425,327.475 163.573,326.29 162.723,325.158 161.872,324.084 161.026,323.07 160.185,322.117 
	159.365,321.218 158.546,320.379 157.744,319.596 156.955,318.857 156.189,318.174 155.439,317.543 154.715,316.963 
	154.008,316.429 153.333,315.936 152.693,315.495 152.068,315.093 151.485,314.731 150.935,314.412 150.413,314.127 
	149.933,313.877 149.485,313.662 149.081,313.479 148.719,313.32 148.396,313.193 148.109,313.092 147.871,313.005 147.677,312.949 
	147.528,312.904 147.427,312.881 147.366,312.866 142.613,311.91 "/>
<polyline id="gearpoly0_50_" fill="#DEDEDD" stroke="#454545" stroke-miterlimit="10" points="125.323,370.499 129.859,372.221 
	129.906,372.236 130.011,372.271 130.16,372.314 130.352,372.367 130.604,372.426 130.897,372.483 131.239,372.552 131.629,372.614 
	132.072,372.673 132.568,372.724 133.108,372.771 133.695,372.802 134.328,372.83 135.021,372.832 135.763,372.816 136.547,372.785 
	137.373,372.729 138.258,372.657 139.181,372.543 140.15,372.404 141.165,372.239 142.217,372.031 143.314,371.787 144.457,371.512 
	145.632,371.188 146.856,370.829 148.101,370.413 149.388,369.958 150.713,369.456 152.065,368.893 153.452,368.289 
	154.285,367.485 154.953,364.459 154.526,363.388 153.523,362.244 152.528,361.177 151.539,360.164 150.559,359.208 149.591,358.31 
	148.634,357.472 147.706,356.685 146.786,355.958 145.891,355.284 145.014,354.652 144.167,354.072 143.343,353.543 142.55,353.06 
	141.78,352.621 141.048,352.218 140.357,351.862 139.686,351.543 139.062,351.259 138.474,351.013 137.921,350.797 137.412,350.61 
	136.941,350.455 136.517,350.325 136.137,350.214 135.801,350.128 135.504,350.065 135.256,350.009 135.056,349.979 
	134.903,349.953 134.799,349.943 134.737,349.936 129.901,349.596 "/>
<polyline id="gearpoly0_51_" fill="#DEDEDD" stroke="#454545" stroke-miterlimit="10" points="120.245,409.915 124.965,411.042 
	125.013,411.052 125.121,411.073 125.275,411.096 125.471,411.125 125.729,411.15 126.027,411.169 126.375,411.194 126.77,411.206 
	127.217,411.208 127.716,411.195 128.257,411.172 128.843,411.127 129.475,411.075 130.161,410.988 130.896,410.877 
	131.669,410.747 132.481,410.586 133.35,410.401 134.25,410.17 135.194,409.908 136.18,409.615 137.196,409.274 138.254,408.891 
	139.352,408.473 140.475,408 141.645,407.489 142.825,406.917 144.043,406.301 145.293,405.633 146.562,404.902 147.86,404.125 
	148.584,403.222 148.859,400.136 148.3,399.127 147.158,398.122 146.035,397.19 144.924,396.312 143.83,395.489 142.755,394.722 
	141.698,394.013 140.678,393.352 139.673,392.749 138.698,392.194 137.748,391.68 136.834,391.212 135.949,390.793 135.101,390.416 
	134.281,390.079 133.504,389.773 132.772,389.508 132.065,389.278 131.41,389.076 130.796,388.907 130.22,388.763 129.691,388.644 
	129.205,388.549 128.768,388.475 128.376,388.413 128.032,388.372 127.729,388.347 127.477,388.323 127.273,388.318 
	127.119,388.312 127.015,388.316 126.953,388.316 122.113,388.598 "/>
</svg>
