<?xml version="1.0" encoding="utf-8"?>
<!-- Generator: Adobe Illustrator 16.0.0, SVG Export Plug-In . SVG Version: 6.00 Build 0)  -->
<!DOCTYPE svg PUBLIC "-//W3C//DTD SVG 1.1//EN" "http://www.w3.org/Graphics/SVG/1.1/DTD/svg11.dtd">
<svg version="1.1" id="Layer_1" xmlns="http://www.w3.org/2000/svg" xmlns:xlink="http://www.w3.org/1999/xlink" x="0px" y="0px"
	 width="198.278px" height="199.616px" viewBox="0 0 198.278 199.616" enable-background="new 0 0 198.278 199.616"
	 xml:space="preserve">
<polygon id="gearpoly0" fill="#DEDEDD" stroke="#454545" stroke-miterlimit="10" points="172.265,99.808 177.114,99.808 
	177.173,99.806 177.278,99.8 177.433,99.787 177.636,99.766 177.886,99.733 178.183,99.687 178.526,99.624 178.915,99.544 
	179.349,99.442 179.827,99.317 180.349,99.168 180.913,98.991 181.519,98.784 182.165,98.546 182.849,98.272 183.571,97.964 
	184.329,97.617 185.122,97.23 185.948,96.802 186.806,96.329 187.692,95.811 188.606,95.245 189.548,94.63 190.515,93.965 
	191.503,93.247 192.511,92.475 193.538,91.647 194.579,90.764 195.636,89.822 196.704,88.821 197.782,87.76 198.278,86.715 
	197.825,83.646 197.046,82.79 195.708,82.086 194.396,81.437 193.112,80.841 191.858,80.297 190.638,79.802 189.448,79.355 
	188.294,78.954 187.179,78.597 186.099,78.28 185.06,78.004 184.06,77.765 183.103,77.561 182.188,77.389 181.317,77.248 
	180.491,77.136 179.71,77.049 178.976,76.986 178.29,76.945 177.649,76.922 177.06,76.916 176.517,76.923 176.022,76.942 
	175.577,76.971 175.181,77.006 174.835,77.046 174.536,77.087 174.288,77.128 174.089,77.167 173.937,77.2 173.833,77.225 
	173.776,77.24 169.134,78.644 165.022,68.08 169.392,65.976 169.444,65.948 169.538,65.897 169.671,65.819 169.845,65.711 
	170.056,65.574 170.302,65.403 170.585,65.198 170.901,64.956 171.247,64.677 171.624,64.357 172.03,63.996 172.462,63.591 
	172.917,63.142 173.396,62.647 173.894,62.104 174.409,61.513 174.942,60.872 175.489,60.179 176.046,59.435 176.614,58.637 
	177.188,57.785 177.769,56.878 178.349,55.916 178.931,54.897 179.509,53.821 180.083,52.688 180.649,51.498 181.204,50.25 
	181.747,48.942 182.274,47.577 182.786,46.154 182.78,44.997 181.04,42.429 179.968,41.995 178.456,41.941 176.991,41.926 
	175.577,41.946 174.212,42 172.896,42.084 171.632,42.197 170.417,42.336 169.257,42.499 168.147,42.682 167.091,42.884 
	166.085,43.102 165.134,43.333 164.235,43.576 163.39,43.827 162.597,44.084 161.856,44.345 161.169,44.606 160.532,44.867 
	159.946,45.124 159.409,45.375 158.925,45.617 158.487,45.849 158.099,46.067 157.757,46.271 157.462,46.457 157.212,46.624 
	157.007,46.769 156.843,46.89 156.72,46.985 156.638,47.053 156.595,47.09 153.021,50.369 144.731,42.636 147.757,38.844 
	147.79,38.798 147.853,38.711 147.938,38.582 148.048,38.411 148.179,38.195 148.327,37.934 148.493,37.626 148.673,37.272 
	148.864,36.869 149.065,36.417 149.272,35.916 149.485,35.365 149.702,34.762 149.917,34.109 150.132,33.404 150.341,32.647 
	150.542,31.838 150.733,30.977 150.913,30.064 151.079,29.099 151.226,28.083 151.354,27.014 151.46,25.895 151.542,24.725 
	151.597,23.504 151.622,22.235 151.616,20.917 151.575,19.551 151.497,18.138 151.38,16.679 151.222,15.175 150.716,14.134 
	148.034,12.576 146.878,12.65 145.493,13.258 144.169,13.879 142.901,14.511 141.694,15.152 140.546,15.799 139.456,16.45 
	138.423,17.101 137.446,17.751 136.526,18.398 135.663,19.039 134.853,19.67 134.095,20.292 133.392,20.9 132.739,21.493 
	132.136,22.069 131.581,22.625 131.075,23.16 130.614,23.671 130.196,24.156 129.823,24.615 129.491,25.044 129.198,25.442 
	128.942,25.808 128.724,26.139 128.538,26.435 128.386,26.693 128.263,26.914 128.169,27.094 128.099,27.233 128.054,27.329 
	128.03,27.383 126.233,31.887 115.411,28.516 116.491,23.788 116.501,23.73 116.519,23.625 116.542,23.472 116.565,23.27 
	116.589,23.019 116.61,22.719 116.626,22.371 116.634,21.973 116.632,21.527 116.616,21.033 116.587,20.491 116.54,19.902 
	116.472,19.266 116.384,18.583 116.271,17.855 116.13,17.083 115.96,16.267 115.759,15.408 115.526,14.507 115.255,13.566 
	114.948,12.585 114.601,11.567 114.21,10.513 113.776,9.423 113.296,8.3 112.769,7.146 112.19,5.96 111.56,4.748 110.876,3.508 
	110.138,2.244 109.343,0.958 108.435,0.241 105.343,0 104.335,0.568 103.351,1.717 102.427,2.851 101.56,3.97 100.749,5.071 
	99.995,6.152 99.296,7.212 98.647,8.247 98.05,9.257 97.503,10.238 97.001,11.19 96.546,12.111 96.134,13 95.763,13.853 
	95.432,14.67 95.138,15.451 94.88,16.192 94.655,16.894 94.462,17.555 94.298,18.173 94.159,18.748 94.046,19.279 93.956,19.765 
	93.884,20.205 93.831,20.599 93.792,20.945 93.767,21.245 93.751,21.496 93.743,21.7 93.741,21.854 93.743,21.961 93.745,22.02 
	94.081,26.858 82.867,28.516 81.788,23.788 81.773,23.731 81.743,23.629 81.697,23.481 81.632,23.289 81.544,23.052 81.433,22.773 
	81.296,22.452 81.13,22.091 80.935,21.69 80.706,21.251 80.444,20.776 80.146,20.266 79.81,19.721 79.434,19.145 79.016,18.539 
	78.554,17.903 78.048,17.241 77.493,16.555 76.892,15.845 76.24,15.114 75.538,14.364 74.782,13.598 73.974,12.817 73.11,12.023 
	72.19,11.22 71.214,10.409 70.179,9.592 69.085,8.772 67.932,7.952 66.718,7.134 65.443,6.32 64.313,6.067 61.424,7.192 
	60.762,8.142 60.373,9.604 60.032,11.027 59.737,12.411 59.485,13.754 59.275,15.056 59.104,16.314 58.97,17.528 58.87,18.696 
	58.802,19.819 58.763,20.894 58.753,21.921 58.767,22.9 58.803,23.83 58.859,24.71 58.934,25.541 59.022,26.321 59.124,27.05 
	59.237,27.729 59.356,28.358 59.482,28.936 59.61,29.463 59.739,29.94 59.866,30.368 59.989,30.746 60.104,31.075 60.211,31.356 
	60.307,31.589 60.388,31.776 60.454,31.916 60.501,32.012 60.528,32.063 62.931,36.277 53.546,42.636 50.522,38.844 50.485,38.8 
	50.413,38.721 50.308,38.607 50.165,38.463 49.983,38.288 49.762,38.084 49.499,37.855 49.193,37.601 48.843,37.325 48.448,37.028 
	48.005,36.714 47.515,36.383 46.976,36.039 46.387,35.683 45.747,35.318 45.056,34.946 44.312,34.569 43.515,34.191 42.665,33.812 
	41.761,33.437 40.803,33.066 39.79,32.704 38.722,32.351 37.6,32.011 36.423,31.686 35.19,31.379 33.903,31.092 32.562,30.828 
	31.167,30.589 29.719,30.378 28.218,30.198 27.091,30.461 24.975,32.729 24.79,33.871 25.074,35.356 25.385,36.787 25.72,38.162 
	26.075,39.481 26.45,40.745 26.843,41.953 27.247,43.105 27.665,44.201 28.091,45.242 28.522,46.228 28.958,47.158 29.396,48.034 
	29.832,48.855 30.265,49.625 30.692,50.34 31.11,51.004 31.519,51.617 31.915,52.181 32.296,52.694 32.659,53.161 33.004,53.58 
	33.327,53.955 33.626,54.285 33.901,54.572 34.147,54.818 34.366,55.025 34.554,55.194 34.708,55.327 34.828,55.424 34.912,55.49 
	34.959,55.524 38.95,58.279 33.256,68.08 28.886,65.976 28.833,65.952 28.734,65.911 28.59,65.855 28.397,65.787 28.159,65.708 
	27.871,65.621 27.534,65.528 27.149,65.432 26.714,65.335 26.229,65.24 25.694,65.148 25.108,65.063 24.474,64.987 23.788,64.922 
	23.054,64.871 22.269,64.835 21.436,64.819 20.554,64.823 19.624,64.852 18.646,64.905 17.622,64.987 16.552,65.1 15.437,65.245 
	14.278,65.426 13.076,65.644 11.833,65.902 10.549,66.202 9.227,66.545 7.866,66.936 6.47,67.375 5.038,67.863 4.138,68.589 
	3.215,71.55 3.544,72.66 4.444,73.875 5.345,75.029 6.243,76.122 7.136,77.157 8.022,78.132 8.899,79.051 9.765,79.913 
	10.616,80.72 11.451,81.473 12.269,82.173 13.064,82.822 13.839,83.422 14.589,83.973 15.312,84.478 16.007,84.937 16.673,85.354 
	17.307,85.729 17.907,86.064 18.474,86.362 19.003,86.625 19.496,86.853 19.949,87.05 20.362,87.218 20.735,87.357 21.063,87.472 
	21.351,87.564 21.593,87.635 21.789,87.687 21.939,87.724 22.044,87.746 22.101,87.756 26.893,88.506 26.015,99.808 21.164,99.808 
	21.106,99.81 20.999,99.815 20.845,99.828 20.643,99.85 20.393,99.882 20.096,99.929 19.753,99.991 19.363,100.071 18.929,100.173 
	18.45,100.298 17.929,100.447 17.364,100.624 16.759,100.831 16.114,101.069 15.43,101.343 14.708,101.651 13.95,101.999 
	13.157,102.385 12.331,102.813 11.474,103.286 10.587,103.805 9.671,104.37 8.729,104.985 7.765,105.651 6.776,106.368 
	5.768,107.141 4.741,107.967 3.698,108.852 2.643,109.793 1.575,110.793 0.497,111.856 0,112.901 0.454,115.969 1.231,116.825 
	2.57,117.53 3.882,118.178 5.166,118.774 6.42,119.319 7.642,119.813 8.83,120.26 9.983,120.661 11.101,121.018 12.18,121.334 
	13.22,121.612 14.219,121.85 15.177,122.055 16.091,122.225 16.962,122.368 17.788,122.479 18.567,122.565 19.302,122.629 
	19.989,122.67 20.628,122.694 21.22,122.7 21.763,122.692 22.257,122.672 22.701,122.643 23.097,122.608 23.444,122.569 
	23.741,122.528 23.99,122.487 24.19,122.448 24.342,122.415 24.445,122.391 24.501,122.375 29.144,120.971 33.256,131.536 
	28.886,133.639 28.835,133.667 28.741,133.717 28.607,133.795 28.435,133.903 28.224,134.042 27.976,134.211 27.694,134.417 
	27.378,134.659 27.031,134.938 26.654,135.258 26.249,135.62 25.817,136.024 25.362,136.473 24.884,136.967 24.386,137.51 
	23.869,138.102 23.337,138.743 22.79,139.436 22.231,140.18 21.665,140.979 21.09,141.831 20.511,142.737 19.93,143.7 
	19.349,144.717 18.77,145.793 18.196,146.926 17.63,148.118 17.074,149.366 16.531,150.672 16.003,152.038 15.493,153.461 
	15.499,154.618 17.239,157.186 18.312,157.62 19.823,157.674 21.286,157.69 22.702,157.668 24.067,157.616 25.383,157.532 
	26.647,157.418 27.86,157.28 29.022,157.116 30.132,156.932 31.188,156.731 32.192,156.512 33.144,156.282 34.042,156.04 
	34.888,155.788 35.681,155.532 36.422,155.27 37.11,155.008 37.747,154.749 38.333,154.491 38.868,154.241 39.354,153.999 
	39.791,153.766 40.18,153.547 40.521,153.344 40.815,153.159 41.065,152.991 41.272,152.846 41.437,152.725 41.558,152.629 
	41.641,152.563 41.685,152.524 45.259,149.247 53.546,156.979 50.522,160.77 50.487,160.817 50.427,160.905 50.339,161.034 
	50.229,161.204 50.1,161.42 49.95,161.682 49.786,161.989 49.606,162.342 49.415,162.747 49.214,163.198 49.005,163.7 
	48.792,164.25 48.577,164.852 48.36,165.506 48.147,166.211 47.938,166.967 47.737,167.778 47.545,168.637 47.365,169.551 
	47.2,170.516 47.052,171.532 46.924,172.6 46.817,173.721 46.735,174.891 46.681,176.11 46.655,177.379 46.663,178.698 
	46.704,180.065 46.781,181.477 46.897,182.936 47.056,184.44 47.563,185.481 50.245,187.04 51.399,186.965 52.784,186.358 
	54.11,185.737 55.376,185.104 56.583,184.463 57.731,183.817 58.823,183.165 59.855,182.514 60.831,181.864 61.751,181.217 
	62.616,180.577 63.427,179.944 64.183,179.323 64.888,178.715 65.54,178.122 66.144,177.545 66.697,176.991 67.204,176.456 
	67.665,175.944 68.081,175.459 68.455,175 68.787,174.571 69.08,174.172 69.335,173.807 69.555,173.475 69.739,173.18 
	69.893,172.922 70.016,172.702 70.11,172.522 70.18,172.381 70.224,172.286 70.247,172.233 72.045,167.727 82.867,171.098 
	81.788,175.827 81.776,175.885 81.759,175.989 81.737,176.143 81.713,176.344 81.688,176.596 81.668,176.895 81.652,177.245 
	81.645,177.641 81.647,178.088 81.662,178.583 81.692,179.124 81.739,179.713 81.806,180.35 81.896,181.032 82.009,181.76 
	82.149,182.532 82.318,183.348 82.519,184.208 82.753,185.108 83.022,186.049 83.331,187.03 83.679,188.047 84.069,189.102 
	84.503,190.192 84.983,191.315 85.511,192.469 86.089,193.655 86.719,194.868 87.401,196.106 88.14,197.372 88.935,198.657 
	89.843,199.374 92.936,199.616 93.944,199.047 94.928,197.899 95.853,196.764 96.72,195.645 97.528,194.543 98.282,193.463 
	98.983,192.403 99.632,191.368 100.228,190.358 100.776,189.377 101.278,188.424 101.733,187.504 102.146,186.616 102.517,185.762 
	102.847,184.944 103.14,184.165 103.399,183.422 103.624,182.721 103.817,182.061 103.981,181.442 104.118,180.868 104.231,180.336 
	104.323,179.85 104.394,179.411 104.448,179.016 104.487,178.67 104.513,178.37 104.528,178.12 104.534,177.915 104.536,177.76 
	104.536,177.653 104.532,177.596 104.198,172.756 115.411,171.098 116.491,175.827 116.505,175.883 116.534,175.987 
	116.581,176.133 116.647,176.327 116.735,176.563 116.847,176.842 116.983,177.163 117.149,177.524 117.345,177.924 
	117.571,178.364 117.835,178.838 118.132,179.35 118.468,179.893 118.845,180.469 119.263,181.077 119.726,181.711 120.231,182.374 
	120.784,183.061 121.386,183.77 122.038,184.5 122.741,185.25 123.497,186.016 124.306,186.797 125.169,187.592 126.089,188.395 
	127.065,189.206 128.101,190.022 129.194,190.842 130.347,191.663 131.562,192.481 132.835,193.295 133.964,193.547 
	136.854,192.422 137.517,191.473 137.905,190.012 138.247,188.588 138.542,187.204 138.792,185.86 139.003,184.559 139.175,183.301 
	139.31,182.086 139.409,180.918 139.478,179.795 139.515,178.721 139.526,177.694 139.513,176.715 139.476,175.786 139.419,174.905 
	139.345,174.075 139.257,173.293 139.153,172.565 139.042,171.885 138.921,171.256 138.796,170.68 138.669,170.153 138.54,169.674 
	138.413,169.247 138.29,168.87 138.175,168.54 138.067,168.258 137.972,168.026 137.89,167.838 137.825,167.7 137.776,167.604 
	137.749,167.551 135.349,163.338 144.731,156.979 147.757,160.77 147.794,160.815 147.864,160.895 147.972,161.008 148.114,161.153 
	148.296,161.327 148.517,161.53 148.78,161.76 149.085,162.014 149.435,162.29 149.831,162.586 150.272,162.901 150.763,163.231 
	151.302,163.577 151.892,163.932 152.532,164.297 153.224,164.668 153.968,165.045 154.763,165.424 155.614,165.803 
	156.519,166.178 157.476,166.549 158.489,166.911 159.556,167.264 160.679,167.604 161.856,167.928 163.089,168.237 
	164.376,168.524 165.716,168.788 167.11,169.026 168.56,169.237 170.062,169.417 171.188,169.155 173.304,166.887 173.487,165.745 
	173.204,164.258 172.894,162.829 172.56,161.454 172.202,160.133 171.827,158.87 171.437,157.663 171.03,156.51 170.614,155.415 
	170.188,154.374 169.757,153.387 169.319,152.458 168.884,151.581 168.446,150.76 168.015,149.991 167.587,149.274 167.167,148.61 
	166.759,147.999 166.364,147.434 165.983,146.92 165.62,146.454 165.274,146.036 164.952,145.661 164.651,145.331 164.378,145.043 
	164.13,144.797 163.913,144.59 163.726,144.42 163.571,144.288 163.45,144.19 163.366,144.125 163.319,144.09 159.327,141.336 
	165.022,131.536 169.392,133.639 169.446,133.663 169.544,133.704 169.688,133.76 169.88,133.829 170.12,133.907 170.407,133.995 
	170.743,134.086 171.13,134.182 171.565,134.28 172.05,134.375 172.585,134.467 173.169,134.551 173.806,134.627 174.489,134.694 
	175.226,134.745 176.009,134.78 176.843,134.795 177.726,134.792 178.655,134.764 179.632,134.709 180.657,134.627 181.728,134.516 
	182.843,134.37 184.001,134.19 185.202,133.971 186.446,133.713 187.729,133.413 189.052,133.069 190.413,132.68 191.81,132.241 
	193.239,131.752 194.142,131.026 195.063,128.065 194.733,126.956 193.835,125.741 192.935,124.586 192.036,123.493 
	191.142,122.458 190.255,121.483 189.378,120.565 188.515,119.702 187.663,118.895 186.827,118.143 186.011,117.442 
	185.214,116.793 184.44,116.194 183.69,115.643 182.968,115.137 182.272,114.678 181.606,114.262 180.972,113.885 180.372,113.551 
	179.806,113.252 179.274,112.991 178.782,112.762 178.329,112.565 177.915,112.397 177.544,112.258 177.214,112.143 
	176.929,112.051 176.687,111.981 176.489,111.928 176.339,111.891 176.235,111.87 176.177,111.858 171.386,111.108 "/>
</svg>
