<?xml version="1.0" encoding="utf-8"?>
<!-- Generator: Adobe Illustrator 16.0.0, SVG Export Plug-In . SVG Version: 6.00 Build 0)  -->
<!DOCTYPE svg PUBLIC "-//W3C//DTD SVG 1.1//EN" "http://www.w3.org/Graphics/SVG/1.1/DTD/svg11.dtd">
<svg version="1.1" id="Layer_1" xmlns="http://www.w3.org/2000/svg" xmlns:xlink="http://www.w3.org/1999/xlink" x="0px" y="0px"
	 width="249.107px" height="249.578px" viewBox="0 0 249.107 249.578" enable-background="new 0 0 249.107 249.578"
	 xml:space="preserve">
<polygon id="gearpoly3" fill="#DEDEDD" stroke="#454545" stroke-miterlimit="10" points="222.652,127.107 224.78,127.157 
	224.833,127.156 224.923,127.154 225.05,127.148 225.217,127.139 225.421,127.122 225.659,127.098 225.938,127.064 226.252,127.021 
	226.6,126.964 226.986,126.895 227.406,126.81 227.864,126.71 228.355,126.591 228.88,126.455 229.439,126.296 230.031,126.117 
	230.654,125.914 231.31,125.688 231.995,125.435 232.713,125.155 233.459,124.848 234.232,124.51 235.034,124.143 235.862,123.743 
	236.717,123.31 237.595,122.843 238.498,122.341 239.423,121.802 240.37,121.226 241.336,120.611 242.323,119.958 243.327,119.263 
	244.35,118.527 245.388,117.75 246.438,116.928 247.504,116.062 248.581,115.152 249.107,114.245 248.708,110.266 248.01,109.48 
	246.773,108.804 245.558,108.168 244.361,107.574 243.188,107.019 242.043,106.502 240.919,106.021 239.822,105.577 
	238.751,105.168 237.709,104.792 236.695,104.45 235.71,104.138 234.756,103.855 233.832,103.602 232.94,103.375 232.082,103.175 
	231.256,102.999 230.464,102.846 229.705,102.715 228.982,102.605 228.296,102.513 227.645,102.439 227.028,102.381 
	226.449,102.338 225.907,102.309 225.403,102.291 224.935,102.283 224.505,102.285 224.114,102.293 223.76,102.308 223.442,102.328 
	223.165,102.351 222.926,102.375 222.725,102.399 222.56,102.421 222.433,102.442 222.344,102.458 222.29,102.468 220.217,102.941 
	217.528,93.416 219.546,92.735 219.594,92.716 219.68,92.684 219.798,92.634 219.949,92.568 220.135,92.483 220.353,92.378 
	220.6,92.252 220.881,92.104 221.189,91.931 221.529,91.734 221.896,91.51 222.29,91.26 222.711,90.981 223.158,90.672 
	223.628,90.333 224.124,89.962 224.642,89.558 225.179,89.121 225.737,88.649 226.316,88.141 226.911,87.597 227.522,87.015 
	228.151,86.395 228.792,85.736 229.446,85.038 230.112,84.298 230.79,83.518 231.473,82.695 232.166,81.83 232.865,80.921 
	233.57,79.969 234.274,78.973 234.983,77.933 235.692,76.846 236.398,75.715 237.105,74.538 237.806,73.314 237.991,72.28 
	236.253,68.678 235.328,68.18 233.935,67.967 232.574,67.786 231.249,67.636 229.958,67.514 228.702,67.421 227.483,67.354 
	226.3,67.312 225.154,67.294 224.046,67.298 222.975,67.322 221.944,67.366 220.95,67.427 219.994,67.504 219.08,67.597 
	218.204,67.702 217.368,67.819 216.571,67.947 215.813,68.082 215.097,68.226 214.42,68.375 213.783,68.528 213.184,68.685 
	212.625,68.842 212.105,69 211.626,69.156 211.185,69.309 210.78,69.457 210.415,69.599 210.087,69.734 209.798,69.86 
	209.545,69.977 209.327,70.082 209.146,70.173 208.999,70.251 208.886,70.313 208.809,70.359 208.764,70.386 206.976,71.542 
	201.191,63.509 202.854,62.179 202.895,62.145 202.961,62.085 203.056,61.999 203.176,61.884 203.322,61.741 203.49,61.568 
	203.68,61.365 203.893,61.129 204.124,60.861 204.375,60.561 204.643,60.225 204.929,59.854 205.228,59.448 205.543,59.005 
	205.869,58.526 206.207,58.007 206.555,57.452 206.91,56.856 207.275,56.222 207.644,55.547 208.017,54.832 208.393,54.076 
	208.771,53.279 209.148,52.44 209.524,51.56 209.897,50.637 210.267,49.672 210.629,48.665 210.983,47.615 211.33,46.523 
	211.665,45.387 211.987,44.209 212.299,42.99 212.592,41.727 212.87,40.421 213.13,39.074 213.369,37.685 213.19,36.649 
	210.325,33.859 209.286,33.707 207.903,33.983 206.565,34.279 205.267,34.591 204.012,34.919 202.8,35.261 201.632,35.615 
	200.505,35.98 199.422,36.355 198.382,36.737 197.385,37.126 196.431,37.52 195.517,37.917 194.648,38.316 193.818,38.715 
	193.033,39.115 192.286,39.511 191.58,39.902 190.917,40.29 190.292,40.669 189.705,41.041 189.159,41.403 188.651,41.754 
	188.18,42.094 187.745,42.419 187.347,42.73 186.983,43.025 186.656,43.302 186.361,43.561 186.101,43.8 185.87,44.018 
	185.672,44.214 185.504,44.387 185.363,44.536 185.253,44.659 185.169,44.755 185.111,44.825 185.079,44.866 183.792,46.562 
	175.61,40.993 176.719,39.175 176.745,39.129 176.788,39.05 176.847,38.936 176.921,38.787 177.007,38.603 177.106,38.384 
	177.216,38.127 177.334,37.833 177.461,37.502 177.593,37.133 177.731,36.726 177.873,36.281 178.015,35.796 178.158,35.273 
	178.302,34.71 178.442,34.108 178.578,33.467 178.71,32.786 178.834,32.065 178.951,31.305 179.057,30.505 179.152,29.666 
	179.234,28.788 179.303,27.87 179.354,26.915 179.39,25.919 179.406,24.887 179.402,23.816 179.375,22.708 179.328,21.563 
	179.254,20.382 179.157,19.165 179.029,17.913 178.875,16.625 178.688,15.303 178.473,13.948 178.223,12.561 177.7,11.649 
	174.053,10.007 173.023,10.22 171.821,10.953 170.662,11.688 169.55,12.425 168.482,13.163 167.461,13.898 166.482,14.631 
	165.551,15.359 164.661,16.082 163.813,16.796 163.01,17.503 162.246,18.201 161.525,18.886 160.845,19.558 160.202,20.217 
	159.599,20.861 159.035,21.488 158.505,22.097 158.015,22.688 157.558,23.259 157.135,23.809 156.743,24.336 156.385,24.84 
	156.06,25.32 155.763,25.775 155.495,26.203 155.253,26.604 155.041,26.977 154.852,27.321 154.688,27.635 154.547,27.918 
	154.427,28.17 154.327,28.391 154.248,28.577 154.185,28.731 154.14,28.851 154.11,28.936 154.093,28.986 153.465,31.02 
	143.871,28.584 144.29,26.497 144.299,26.445 144.313,26.356 144.33,26.229 144.349,26.064 144.367,25.861 144.385,25.62 
	144.399,25.342 144.41,25.026 144.417,24.671 144.414,24.279 144.405,23.85 144.385,23.383 144.354,22.878 144.31,22.337 
	144.251,21.76 144.178,21.146 144.086,20.497 143.977,19.812 143.848,19.092 143.697,18.338 143.522,17.55 143.325,16.729 
	143.103,15.876 142.852,14.991 142.574,14.075 142.268,13.128 141.929,12.152 141.56,11.147 141.156,10.114 140.721,9.056 
	140.246,7.97 139.736,6.861 139.19,5.726 138.605,4.569 137.979,3.391 137.311,2.192 136.601,0.974 135.799,0.296 131.811,0 
	130.916,0.552 130.034,1.652 129.198,2.74 128.405,3.812 127.654,4.87 126.945,5.911 126.278,6.934 125.65,7.938 125.062,8.92 
	124.511,9.882 123.997,10.821 123.519,11.736 123.074,12.627 122.665,13.493 122.288,14.331 121.94,15.142 121.623,15.925 
	121.335,16.679 121.075,17.402 120.841,18.094 120.631,18.756 120.445,19.385 120.28,19.981 120.139,20.543 120.015,21.072 
	119.909,21.566 119.821,22.026 119.747,22.449 119.688,22.836 119.643,23.188 119.605,23.502 119.58,23.779 119.562,24.021 
	119.552,24.224 119.546,24.389 119.542,24.518 119.543,24.608 119.544,24.661 119.651,26.787 109.803,27.779 109.481,25.675 
	109.473,25.623 109.455,25.535 109.427,25.41 109.388,25.248 109.337,25.051 109.271,24.819 109.189,24.552 109.093,24.251 
	108.976,23.916 108.841,23.548 108.685,23.148 108.506,22.715 108.304,22.252 108.078,21.759 107.826,21.237 107.546,20.685 
	107.238,20.106 106.9,19.5 106.532,18.867 106.134,18.211 105.701,17.53 105.235,16.826 104.732,16.1 104.195,15.354 
	103.621,14.588 103.009,13.804 102.357,13.002 101.666,12.185 100.935,11.352 100.162,10.506 99.345,9.648 98.488,8.779 
	97.585,7.901 96.639,7.014 95.647,6.121 94.61,5.223 93.527,4.321 92.541,3.958 88.693,5.044 88.041,5.868 87.589,7.204 
	87.175,8.511 86.796,9.792 86.453,11.042 86.143,12.262 85.866,13.452 85.619,14.609 85.401,15.734 85.213,16.827 85.051,17.885 
	84.915,18.908 84.803,19.897 84.713,20.851 84.645,21.768 84.597,22.649 84.566,23.493 84.554,24.299 84.556,25.068 84.573,25.799 
	84.603,26.493 84.643,27.147 84.692,27.763 84.75,28.341 84.815,28.879 84.885,29.38 84.959,29.842 85.035,30.265 85.112,30.648 
	85.188,30.995 85.263,31.303 85.333,31.573 85.398,31.805 85.457,32 85.509,32.157 85.55,32.278 85.581,32.364 85.601,32.413 
	86.427,34.374 77.513,38.676 76.492,36.807 76.465,36.762 76.418,36.685 76.349,36.576 76.258,36.438 76.142,36.271 76.001,36.075 
	75.833,35.852 75.639,35.603 75.415,35.328 75.162,35.028 74.878,34.705 74.562,34.36 74.215,33.994 73.833,33.608 73.417,33.204 
	72.966,32.78 72.479,32.342 71.955,31.887 71.393,31.419 70.792,30.938 70.153,30.447 69.474,29.945 68.754,29.434 67.994,28.917 
	67.192,28.394 66.348,27.866 65.462,27.335 64.533,26.804 63.561,26.271 62.545,25.741 61.485,25.214 60.382,24.691 59.234,24.174 
	58.042,23.665 56.804,23.165 55.522,22.675 54.196,22.198 53.145,22.194 49.9,24.531 49.569,25.528 49.602,26.938 49.66,28.309 
	49.742,29.641 49.847,30.933 49.973,32.186 50.119,33.398 50.283,34.57 50.463,35.702 50.66,36.792 50.87,37.843 51.092,38.852 
	51.325,39.819 51.567,40.746 51.816,41.63 52.072,42.475 52.333,43.278 52.596,44.041 52.862,44.762 53.128,45.443 53.392,46.084 
	53.654,46.686 53.912,47.248 54.164,47.771 54.409,48.255 54.646,48.702 54.874,49.11 55.089,49.481 55.293,49.816 55.483,50.115 
	55.658,50.379 55.816,50.609 55.957,50.805 56.08,50.967 56.182,51.098 56.262,51.198 56.32,51.267 56.355,51.307 57.803,52.867 
	50.897,59.958 49.299,58.552 49.258,58.518 49.188,58.461 49.086,58.383 48.953,58.285 48.787,58.167 48.587,58.031 48.354,57.879 
	48.085,57.711 47.781,57.529 47.44,57.334 47.064,57.128 46.649,56.912 46.197,56.687 45.707,56.455 45.177,56.216 44.608,55.973 
	44,55.728 43.353,55.48 42.664,55.232 41.936,54.986 41.167,54.743 40.357,54.503 39.507,54.27 38.615,54.043 37.683,53.826 
	36.709,53.619 35.695,53.424 34.64,53.242 33.544,53.074 32.409,52.923 31.232,52.79 30.016,52.676 28.761,52.583 27.466,52.512 
	26.132,52.465 24.76,52.443 23.351,52.449 22.362,52.805 20.112,56.11 20.143,57.161 20.655,58.474 21.178,59.743 21.711,60.966 
	22.251,62.145 22.798,63.279 23.351,64.369 23.906,65.414 24.463,66.415 25.021,67.373 25.576,68.288 26.13,69.159 26.68,69.989 
	27.224,70.777 27.761,71.523 28.29,72.229 28.81,72.895 29.319,73.521 29.814,74.109 30.297,74.658 30.766,75.17 31.217,75.646 
	31.651,76.085 32.067,76.491 32.463,76.862 32.838,77.2 33.192,77.506 33.522,77.781 33.828,78.026 34.108,78.242 34.363,78.431 
	34.591,78.593 34.79,78.728 34.96,78.839 35.101,78.927 35.211,78.994 35.29,79.038 35.335,79.064 37.23,80.035 33.165,89.06 
	31.183,88.285 31.133,88.267 31.047,88.238 30.925,88.2 30.766,88.153 30.57,88.1 30.336,88.04 30.064,87.977 29.755,87.911 
	29.406,87.843 29.02,87.777 28.596,87.712 28.132,87.65 27.63,87.593 27.09,87.543 26.51,87.5 25.893,87.466 25.238,87.443 
	24.544,87.433 23.813,87.435 23.044,87.453 22.238,87.487 21.396,87.539 20.517,87.61 19.601,87.703 18.651,87.818 17.666,87.956 
	16.646,88.119 15.592,88.309 14.505,88.526 13.386,88.773 12.235,89.049 11.053,89.359 9.842,89.701 8.601,90.077 7.332,90.489 
	6.035,90.938 4.711,91.425 3.905,92.098 2.921,95.974 3.309,96.95 4.24,98.009 5.165,99.022 6.084,99.989 6.996,100.912 
	7.897,101.791 8.789,102.626 9.668,103.418 10.534,104.169 11.385,104.878 12.22,105.547 13.039,106.177 13.84,106.769 
	14.62,107.323 15.38,107.841 16.12,108.323 16.835,108.771 17.527,109.186 18.195,109.568 18.836,109.919 19.451,110.24 
	20.038,110.533 20.597,110.797 21.125,111.036 21.625,111.249 22.093,111.439 22.53,111.605 22.934,111.751 23.305,111.877 
	23.643,111.983 23.947,112.074 24.216,112.147 24.449,112.207 24.647,112.253 24.81,112.288 24.936,112.312 25.025,112.328 
	25.077,112.335 27.189,112.601 26.457,122.471 24.329,122.421 24.276,122.422 24.186,122.424 24.058,122.43 23.892,122.439 
	23.689,122.456 23.449,122.481 23.172,122.514 22.858,122.558 22.509,122.614 22.123,122.684 21.701,122.768 21.245,122.868 
	20.754,122.988 20.229,123.124 19.67,123.282 19.078,123.461 18.455,123.664 17.799,123.891 17.113,124.144 16.396,124.423 
	15.651,124.731 14.876,125.068 14.075,125.436 13.247,125.835 12.393,126.269 11.514,126.735 10.611,127.237 9.686,127.776 
	8.739,128.352 7.771,128.967 6.785,129.62 5.78,130.316 4.759,131.051 3.722,131.829 2.669,132.65 1.604,133.516 0.528,134.425 
	0,135.333 0.401,139.312 1.1,140.097 2.336,140.775 3.552,141.41 4.747,142.004 5.919,142.56 7.067,143.076 8.19,143.556 
	9.287,144.001 10.357,144.41 11.4,144.786 12.414,145.128 13.399,145.44 14.354,145.722 15.277,145.976 16.168,146.203 
	17.027,146.403 17.853,146.58 18.645,146.732 19.403,146.863 20.126,146.973 20.813,147.065 21.465,147.138 22.081,147.197 
	22.659,147.24 23.201,147.269 23.706,147.288 24.174,147.294 24.604,147.294 24.996,147.285 25.349,147.27 25.665,147.251 
	25.943,147.228 26.183,147.203 26.385,147.179 26.55,147.157 26.677,147.136 26.765,147.121 26.817,147.111 28.893,146.636 
	31.58,156.163 29.563,156.843 29.514,156.863 29.43,156.895 29.312,156.943 29.159,157.009 28.974,157.095 28.757,157.2 
	28.508,157.326 28.228,157.474 27.918,157.647 27.58,157.843 27.213,158.068 26.818,158.318 26.397,158.597 25.951,158.906 
	25.48,159.246 24.985,159.617 24.468,160.02 23.93,160.458 23.371,160.929 22.793,161.437 22.199,161.982 21.586,162.564 
	20.959,163.183 20.317,163.841 19.662,164.541 18.996,165.28 18.32,166.06 17.635,166.882 16.942,167.748 16.243,168.657 
	15.54,169.609 14.833,170.604 14.125,171.645 13.417,172.732 12.708,173.862 12.004,175.042 11.304,176.263 11.118,177.298 
	12.855,180.899 13.781,181.397 15.174,181.612 16.535,181.792 17.86,181.943 19.151,182.064 20.407,182.157 21.627,182.223 
	22.81,182.264 23.955,182.284 25.063,182.279 26.133,182.255 27.166,182.211 28.159,182.152 29.113,182.074 30.028,181.98 
	30.904,181.876 31.741,181.759 32.537,181.631 33.294,181.495 34.011,181.351 34.688,181.204 35.326,181.05 35.924,180.892 
	36.482,180.736 37.002,180.579 37.483,180.421 37.925,180.27 38.328,180.121 38.693,179.979 39.021,179.845 39.312,179.718 
	39.564,179.601 39.782,179.497 39.964,179.404 40.11,179.328 40.222,179.265 40.3,179.218 40.346,179.192 42.133,178.037 
	47.917,186.07 46.255,187.399 46.215,187.433 46.147,187.494 46.052,187.579 45.932,187.694 45.788,187.836 45.62,188.01 
	45.429,188.213 45.216,188.449 44.984,188.716 44.734,189.017 44.465,189.353 44.181,189.722 43.88,190.129 43.566,190.572 
	43.24,191.052 42.901,191.57 42.554,192.126 42.197,192.721 41.834,193.356 41.465,194.031 41.092,194.745 40.715,195.502 
	40.338,196.298 39.96,197.137 39.584,198.019 39.211,198.94 38.843,199.907 38.48,200.914 38.125,201.962 37.779,203.056 
	37.444,204.191 37.12,205.369 36.811,206.589 36.516,207.852 36.238,209.156 35.979,210.504 35.739,211.893 35.918,212.929 
	38.783,215.718 39.822,215.871 41.205,215.593 42.544,215.298 43.842,214.988 45.097,214.66 46.309,214.317 47.478,213.964 
	48.604,213.598 49.687,213.223 50.726,212.84 51.724,212.452 52.679,212.059 53.591,211.661 54.461,211.261 55.291,210.863 
	56.077,210.463 56.822,210.069 57.528,209.675 58.192,209.288 58.817,208.908 59.403,208.537 59.949,208.174 60.458,207.823 
	60.929,207.484 61.364,207.159 61.762,206.848 62.125,206.554 62.453,206.276 62.748,206.018 63.009,205.778 63.239,205.56 
	63.438,205.364 63.605,205.192 63.745,205.043 63.855,204.918 63.939,204.823 63.998,204.754 64.031,204.711 65.316,203.014 
	73.499,208.584 72.391,210.403 72.365,210.45 72.321,210.529 72.262,210.642 72.188,210.791 72.101,210.974 72.002,211.195 
	71.893,211.451 71.774,211.744 71.648,212.075 71.515,212.446 71.377,212.852 71.236,213.296 71.093,213.781 70.949,214.305 
	70.807,214.869 70.666,215.469 70.53,216.111 70.399,216.793 70.274,217.513 70.158,218.274 70.052,219.073 69.957,219.913 
	69.875,220.79 69.807,221.708 69.754,222.664 69.72,223.658 69.703,224.691 69.707,225.761 69.732,226.871 69.781,228.014 
	69.854,229.196 69.953,230.414 70.08,231.665 70.235,232.954 70.419,234.275 70.637,235.629 70.886,237.017 71.409,237.928 
	75.055,239.572 76.084,239.357 77.289,238.626 78.447,237.889 79.56,237.152 80.626,236.415 81.648,235.679 82.625,234.946 
	83.559,234.218 84.448,233.497 85.295,232.783 86.099,232.074 86.861,231.377 87.583,230.693 88.264,230.019 88.905,229.361 
	89.509,228.716 90.074,228.089 90.603,227.48 91.095,226.89 91.552,226.319 91.976,225.77 92.365,225.242 92.723,224.739 
	93.05,224.258 93.346,223.803 93.614,223.375 93.854,222.973 94.068,222.601 94.257,222.256 94.42,221.944 94.562,221.66 
	94.681,221.407 94.78,221.189 94.861,221.001 94.923,220.845 94.969,220.728 94.999,220.643 95.016,220.592 95.644,218.557 
	105.238,220.994 104.818,223.081 104.81,223.133 104.796,223.222 104.778,223.349 104.761,223.515 104.742,223.717 104.725,223.958 
	104.709,224.236 104.698,224.553 104.692,224.906 104.693,225.298 104.704,225.729 104.724,226.195 104.755,226.699 
	104.799,227.241 104.856,227.819 104.932,228.432 105.021,229.081 105.132,229.765 105.261,230.485 105.412,231.239 
	105.585,232.029 105.783,232.848 106.006,233.701 106.257,234.586 106.535,235.503 106.841,236.451 107.18,237.425 107.55,238.43 
	107.952,239.463 108.39,240.524 108.861,241.607 109.371,242.717 109.919,243.851 110.504,245.008 111.131,246.188 111.799,247.387 
	112.508,248.605 113.311,249.283 117.298,249.578 118.192,249.026 119.073,247.926 119.91,246.838 120.703,245.764 121.454,244.708 
	122.163,243.668 122.831,242.644 123.459,241.641 124.047,240.659 124.599,239.697 125.11,238.757 125.591,237.84 126.033,236.951 
	126.444,236.084 126.821,235.246 127.17,234.435 127.484,233.654 127.774,232.899 128.033,232.176 128.269,231.484 128.478,230.824 
	128.664,230.192 128.827,229.596 128.971,229.034 129.093,228.504 129.198,228.01 129.287,227.552 129.36,227.129 129.42,226.743 
	129.467,226.39 129.502,226.077 129.527,225.797 129.547,225.558 129.558,225.355 129.564,225.188 129.565,225.06 129.565,224.97 
	129.564,224.917 129.458,222.792 139.307,221.799 139.627,223.903 139.637,223.957 139.654,224.043 139.683,224.168 139.72,224.331 
	139.771,224.528 139.838,224.759 139.918,225.025 140.017,225.326 140.132,225.662 140.268,226.03 140.425,226.43 140.602,226.862 
	140.804,227.326 141.03,227.818 141.283,228.341 141.562,228.893 141.87,229.473 142.208,230.078 142.576,230.71 142.975,231.367 
	143.407,232.049 143.873,232.751 144.376,233.478 144.913,234.224 145.487,234.99 146.1,235.773 146.751,236.577 147.442,237.394 
	148.175,238.226 148.948,239.072 149.763,239.93 150.62,240.798 151.524,241.676 152.471,242.563 153.462,243.458 154.498,244.355 
	155.581,245.258 156.567,245.619 160.416,244.534 161.066,243.709 161.521,242.375 161.934,241.067 162.312,239.787 
	162.656,238.537 162.966,237.315 163.242,236.126 163.491,234.969 163.706,233.843 163.897,232.751 164.059,231.693 164.194,230.67 
	164.306,229.68 164.396,228.728 164.463,227.811 164.513,226.929 164.543,226.085 164.554,225.279 164.553,224.509 164.536,223.778 
	164.506,223.086 164.468,222.43 164.417,221.815 164.357,221.239 164.293,220.699 164.223,220.197 164.149,219.737 164.073,219.313 
	163.997,218.929 163.921,218.583 163.847,218.276 163.776,218.004 163.711,217.773 163.651,217.578 163.601,217.42 163.558,217.3 
	163.527,217.213 163.509,217.166 162.682,215.205 171.597,210.902 172.617,212.77 172.644,212.816 172.69,212.894 172.761,213.002 
	172.851,213.139 172.966,213.307 173.107,213.502 173.274,213.726 173.47,213.976 173.694,214.251 173.946,214.55 174.23,214.874 
	174.547,215.217 174.893,215.584 175.274,215.971 175.69,216.375 176.142,216.798 176.63,217.236 177.154,217.691 177.717,218.159 
	178.316,218.639 178.955,219.131 179.635,219.633 180.353,220.143 181.114,220.662 181.918,221.184 182.761,221.712 
	183.646,222.242 184.575,222.774 185.548,223.305 186.562,223.836 187.622,224.364 188.727,224.886 189.875,225.404 
	191.068,225.913 192.304,226.413 193.586,226.902 194.913,227.381 195.964,227.384 199.21,225.047 199.54,224.05 199.507,222.64 
	199.449,221.27 199.368,219.938 199.261,218.646 199.137,217.392 198.989,216.179 198.825,215.007 198.645,213.876 198.448,212.785 
	198.238,211.734 198.016,210.727 197.783,209.758 197.541,208.833 197.293,207.948 197.037,207.104 196.776,206.3 196.512,205.538 
	196.247,204.817 195.98,204.134 195.716,203.494 195.454,202.891 195.196,202.33 194.944,201.806 194.7,201.322 194.463,200.877 
	194.236,200.469 194.02,200.097 193.815,199.761 193.625,199.461 193.452,199.198 193.292,198.97 193.151,198.773 193.029,198.61 
	192.927,198.481 192.848,198.381 192.788,198.311 192.754,198.271 191.306,196.711 198.213,189.62 199.811,191.026 199.851,191.059 
	199.921,191.117 200.023,191.196 200.155,191.294 200.323,191.412 200.521,191.546 200.756,191.699 201.023,191.868 
	201.328,192.048 201.668,192.244 202.045,192.451 202.46,192.667 202.911,192.89 203.402,193.123 203.932,193.362 204.501,193.604 
	205.108,193.851 205.757,194.099 206.444,194.345 207.173,194.592 207.941,194.836 208.753,195.075 209.603,195.309 
	210.493,195.535 211.427,195.752 212.4,195.959 213.413,196.156 214.469,196.336 215.564,196.505 216.7,196.655 217.877,196.788 
	219.093,196.903 220.349,196.995 221.643,197.067 222.976,197.114 224.348,197.134 225.76,197.129 226.747,196.773 228.997,193.467 
	228.965,192.418 228.453,191.105 227.93,189.835 227.398,188.612 226.857,187.433 226.31,186.298 225.758,185.209 225.204,184.165 
	224.646,183.164 224.088,182.204 223.533,181.29 222.979,180.417 222.429,179.587 221.884,178.801 221.347,178.054 220.819,177.348 
	220.299,176.683 219.79,176.055 219.295,175.47 218.812,174.918 218.343,174.408 217.891,173.932 217.458,173.493 217.042,173.087 
	216.646,172.717 216.271,172.378 215.916,172.071 215.587,171.797 215.28,171.552 215,171.335 214.745,171.146 214.518,170.985 
	214.318,170.849 214.148,170.738 214.008,170.651 213.898,170.585 213.819,170.541 213.772,170.514 211.88,169.543 215.943,160.518 
	217.926,161.293 217.977,161.31 218.061,161.339 218.184,161.378 218.342,161.425 218.539,161.479 218.773,161.539 219.044,161.601 
	219.354,161.667 219.703,161.734 220.088,161.802 220.513,161.867 220.977,161.928 221.479,161.986 222.019,162.035 
	222.598,162.078 223.214,162.113 223.87,162.135 224.563,162.146 225.297,162.144 226.064,162.125 226.87,162.091 227.714,162.039 
	228.592,161.968 229.507,161.876 230.457,161.76 231.443,161.623 232.463,161.458 233.517,161.269 234.604,161.052 235.724,160.806 
	236.873,160.529 238.057,160.22 239.268,159.876 240.507,159.501 241.777,159.088 243.073,158.64 244.397,158.153 245.203,157.48 
	246.188,153.605 245.8,152.628 244.87,151.57 243.944,150.556 243.023,149.588 242.113,148.666 241.212,147.787 240.319,146.953 
	239.441,146.16 238.574,145.41 237.724,144.7 236.888,144.031 236.069,143.401 235.27,142.81 234.489,142.255 233.729,141.738 
	232.989,141.255 232.272,140.807 231.582,140.392 230.915,140.01 230.272,139.66 229.658,139.338 229.071,139.045 228.513,138.781 
	227.983,138.542 227.484,138.33 227.016,138.139 226.578,137.972 226.176,137.828 225.804,137.701 225.466,137.594 225.161,137.504 
	224.894,137.43 224.658,137.372 224.461,137.325 224.299,137.291 224.173,137.266 224.083,137.25 224.03,137.243 221.919,136.978 
	"/>
</svg>
